<svg width="1362" height="1120" viewBox="0 0 1362 1120" fill="none" xmlns="http://www.w3.org/2000/svg">
<path d="M651.781 1120C992.508 1120 1268.72 1103.57 1268.72 1083.31C1268.72 1063.05 992.508 1046.62 651.781 1046.62C311.054 1046.62 34.8405 1063.05 34.8405 1083.31C34.8405 1103.57 311.054 1120 651.781 1120Z" fill="#3293CF"/>
<path opacity="0.6" d="M651.781 1120C992.508 1120 1268.72 1103.57 1268.72 1083.31C1268.72 1063.05 992.508 1046.62 651.781 1046.62C311.054 1046.62 34.8405 1063.05 34.8405 1083.31C34.8405 1103.57 311.054 1120 651.781 1120Z" fill="#044167"/>
<path d="M147.911 305.928H1175.27C1184.41 305.928 1193.18 309.561 1199.65 316.028C1206.12 322.494 1209.75 331.265 1209.75 340.41V1017.51H113.463V340.41C113.463 331.27 117.091 322.505 123.55 316.039C130.01 309.574 138.772 305.937 147.911 305.928Z" fill="#3293CF" stroke="#263238" stroke-width="0.920603" stroke-miterlimit="10"/>
<path d="M1165.28 361.54H157.932V930.813H1165.28V361.54Z" fill="white"/>
<mask id="mask0_46_238" style="mask-type:luminance" maskUnits="userSpaceOnUse" x="157" y="361" width="1009" height="570">
<path d="M1165.28 361.541H157.932V930.814H1165.28V361.541Z" fill="white"/>
</mask>
<g mask="url(#mask0_46_238)">
<g opacity="0.4" style="mix-blend-mode:multiply">
<path d="M1165.28 930.814V444.876L332.02 930.814H1165.28Z" fill="#3293CF"/>
</g>
</g>
<path d="M1165.28 361.54H157.932V930.813H1165.28V361.54Z" stroke="#263238" stroke-width="0.690452" stroke-miterlimit="10"/>
<path d="M1040.8 983.261H287.386V1020.38H1040.8V983.261Z" fill="#3293CF" stroke="#263238" stroke-width="0.691688" stroke-miterlimit="10"/>
<path d="M1040.8 1001.16H287.386V1020.41H1040.8V1001.16Z" fill="#3293CF" stroke="#263238" stroke-width="0.691688" stroke-miterlimit="10"/>
<path d="M24.7865 1042.4C24.7865 1042.4 37.1814 1057.53 74.2341 1069.89H1253.92C1253.92 1069.89 1281.41 1063 1293.81 1043.75L24.7865 1042.4Z" fill="#3293CF" stroke="#263238" stroke-width="0.920603" stroke-miterlimit="10"/>
<path d="M1287.58 1015.3H31.1815C26.2659 1015.3 22.2809 1019.29 22.2809 1024.2V1035.31C22.2809 1040.23 26.2659 1044.21 31.1815 1044.21H1287.58C1292.49 1044.21 1296.48 1040.23 1296.48 1035.31V1024.2C1296.48 1019.29 1292.49 1015.3 1287.58 1015.3Z" fill="#3293CF" stroke="#263238" stroke-width="0.920603" stroke-miterlimit="10"/>
<path d="M661.374 337.08C666.691 337.08 671 332.771 671 327.454C671 322.138 666.691 317.829 661.374 317.829C656.058 317.829 651.749 322.138 651.749 327.454C651.749 332.771 656.058 337.08 661.374 337.08Z" fill="#263238"/>
<path d="M534.195 317.829H293.55C292.918 317.829 292.292 317.704 291.708 317.463C291.124 317.221 290.594 316.866 290.147 316.419C289.7 315.972 289.345 315.442 289.104 314.858C288.862 314.274 288.737 313.648 288.737 313.016C288.737 312.384 288.862 311.758 289.104 311.174C289.345 310.59 289.7 310.06 290.147 309.613C290.594 309.166 291.124 308.811 291.708 308.569C292.292 308.328 292.918 308.203 293.55 308.203H534.195C535.469 308.212 536.688 308.722 537.589 309.622C538.489 310.523 538.999 311.742 539.008 313.016C539.008 314.292 538.501 315.517 537.598 316.419C536.696 317.322 535.471 317.829 534.195 317.829Z" fill="#3293CF" stroke="#263238" stroke-width="0.691688" stroke-miterlimit="10"/>
<path d="M1025.01 317.829H784.367C783.09 317.829 781.866 317.322 780.964 316.419C780.061 315.517 779.554 314.292 779.554 313.016C779.563 311.742 780.072 310.523 780.973 309.622C781.874 308.722 783.093 308.212 784.367 308.203H1025.01C1026.29 308.203 1027.51 308.71 1028.41 309.613C1029.32 310.515 1029.82 311.74 1029.82 313.016C1029.82 314.292 1029.32 315.517 1028.41 316.419C1027.51 317.322 1026.29 317.829 1025.01 317.829Z" fill="#3293CF" stroke="#263238" stroke-width="0.691688" stroke-miterlimit="10"/>
<path d="M1200.32 506.191C1199.59 506.191 1198.89 505.904 1198.37 505.392C1197.86 504.879 1197.56 504.184 1197.55 503.455V423.712C1197.56 422.981 1197.85 422.281 1198.37 421.764C1198.89 421.246 1199.59 420.952 1200.32 420.943C1201.05 420.952 1201.74 421.248 1202.26 421.766C1202.77 422.284 1203.06 422.984 1203.06 423.712V503.455C1203.06 504.181 1202.77 504.876 1202.25 505.39C1201.74 505.903 1201.05 506.191 1200.32 506.191Z" fill="#3293CF" stroke="#263238" stroke-width="0.691688" stroke-miterlimit="10"/>
<path d="M123.781 506.191C123.421 506.191 123.065 506.12 122.734 505.983C122.402 505.845 122.1 505.644 121.846 505.39C121.592 505.136 121.39 504.834 121.253 504.502C121.115 504.17 121.044 503.814 121.044 503.455V423.712C121.044 422.984 121.332 422.284 121.844 421.766C122.356 421.248 123.052 420.952 123.781 420.943C124.512 420.952 125.212 421.246 125.729 421.764C126.247 422.281 126.541 422.981 126.55 423.712V503.455C126.541 504.184 126.245 504.879 125.727 505.392C125.209 505.904 124.509 506.191 123.781 506.191Z" fill="#3293CF" stroke="#263238" stroke-width="0.691688" stroke-miterlimit="10"/>
<path d="M877.263 527.091C881.944 523.794 886.987 517.927 887.152 511.729C887.214 510.277 886.972 508.828 886.44 507.476C885.909 506.123 885.1 504.896 884.066 503.875C883.032 502.853 881.796 502.06 880.437 501.544C879.078 501.029 877.626 500.804 876.175 500.884C867.439 501.675 859.692 515.388 857.846 523.003C857.846 523.663 856.528 534.244 856.693 534.211C856.857 534.178 871.725 531.014 877.263 527.091Z" fill="#263238"/>
<path d="M801.806 692.377C801.597 691.201 801.141 690.083 800.467 689.097C799.794 688.11 798.919 687.278 797.9 686.654C796.881 686.031 795.742 685.631 794.557 685.481C793.372 685.331 792.168 685.435 791.026 685.784C784.433 688.059 780.708 700.421 780.807 706.816C780.807 707.212 781.433 712.025 781.796 714.464C781.038 712.585 780.313 710.673 779.554 708.695C778.467 705.827 777.412 702.794 776.258 699.827L774.774 695.113C774.247 693.531 773.917 691.817 773.489 690.366C772.895 687.993 772.401 685.521 771.907 683.048C777.265 681.561 782.358 679.247 787.004 676.192C790.598 672.895 794.257 668.049 793.894 663.006C793.851 661.82 793.559 660.657 793.036 659.593C792.514 658.528 791.772 657.586 790.861 656.827C789.95 656.068 788.889 655.51 787.747 655.188C786.605 654.867 785.409 654.79 784.235 654.962C777.214 656.215 771.808 667.884 771.049 674.214C771.049 674.411 771.049 675.763 771.049 677.51C770.654 675.071 770.225 672.664 769.896 670.192C768.907 663.203 768.148 656.05 767.357 648.897C767.193 647.38 766.995 645.897 766.83 644.413C772.34 642.868 777.585 640.501 782.389 637.392C785.983 634.095 789.642 629.249 789.279 624.206C789.231 623.022 788.935 621.862 788.411 620.8C787.887 619.738 787.146 618.797 786.235 618.039C785.325 617.282 784.266 616.723 783.127 616.399C781.988 616.076 780.793 615.995 779.62 616.162C772.599 617.415 767.193 629.084 766.434 635.414C766.434 635.644 766.434 637.26 766.434 639.04C765.94 635.183 765.412 631.293 764.753 627.469C763.675 620.905 762.167 614.419 760.237 608.053C761.127 607.789 772.236 604.427 776.291 600.899C779.851 597.603 783.543 592.757 783.148 587.713C783.105 586.528 782.812 585.365 782.29 584.301C781.767 583.236 781.026 582.294 780.114 581.535C779.203 580.776 778.142 580.217 777 579.896C775.859 579.575 774.662 579.498 773.489 579.67C766.467 580.923 761.061 592.592 760.303 598.921C760.303 599.35 760.105 605.218 760.138 607.295C760.124 607.218 760.124 607.14 760.138 607.064C758.066 600.868 755.452 594.867 752.325 589.131C749.569 583.987 746.509 579.011 743.161 574.231C740.095 569.747 737.029 565.858 734.26 562.429C732.777 560.583 731.359 558.902 730.041 557.386C730.041 557.386 727.667 549.111 727.437 548.584C724.898 542.749 716.558 532.958 709.438 533.684C708.264 533.831 707.134 534.225 706.123 534.84C705.111 535.454 704.241 536.275 703.569 537.249C702.897 538.223 702.438 539.328 702.222 540.492C702.006 541.656 702.039 542.852 702.317 544.002C703.306 548.946 708.185 552.737 712.503 554.814C717.995 556.541 723.724 557.398 729.481 557.353C730.832 559.001 732.25 560.649 733.766 562.693C736.436 566.187 739.436 570.143 742.37 574.659C743.161 575.879 743.952 577.198 744.743 578.45C742.963 576.604 740.491 574.066 740.194 573.868C735.249 569.846 723.349 565 717.382 568.89C716.407 569.568 715.585 570.442 714.969 571.458C714.354 572.473 713.959 573.607 713.809 574.785C713.66 575.963 713.76 577.159 714.103 578.296C714.446 579.433 715.024 580.485 715.8 581.384C717.598 583.158 719.755 584.527 722.126 585.397C724.497 586.267 727.028 586.618 729.546 586.428C734.491 586.428 743.853 581.813 746.029 580.824C747.776 583.659 749.325 586.625 751.073 589.823C754.037 595.55 756.486 601.529 758.391 607.69C758.391 608.053 758.391 608.448 758.655 608.811C757.929 607.723 753.545 602.218 753.182 601.789C748.699 597.24 737.392 591.109 731.03 594.339C729.985 594.903 729.071 595.68 728.347 596.621C727.623 597.562 727.106 598.644 726.829 599.799C726.552 600.953 726.522 602.152 726.74 603.319C726.959 604.486 727.421 605.593 728.096 606.569C730.799 610.789 736.733 612.602 741.48 612.965C746.952 613.393 758.292 609.207 758.721 609.042C760.444 615.246 761.765 621.556 762.676 627.931C763.369 632.645 763.896 637.425 764.357 642.271C763.402 640.886 759.281 635.677 758.951 635.348C754.468 630.799 743.161 624.7 736.799 627.898C735.754 628.461 734.84 629.239 734.116 630.179C733.392 631.12 732.875 632.203 732.598 633.357C732.321 634.511 732.291 635.711 732.509 636.877C732.728 638.044 733.189 639.152 733.865 640.128C736.568 644.38 742.502 646.16 747.249 646.523C752.589 646.952 763.467 642.996 764.39 642.666C764.621 644.842 764.819 647.05 765.017 649.259C765.676 656.445 766.27 663.632 767.094 670.719C767.39 673.159 767.753 675.565 768.116 677.972C766.599 675.961 763.731 672.368 763.467 672.071C758.984 667.555 747.677 661.423 741.315 664.654C740.269 665.211 739.352 665.983 738.625 666.919C737.898 667.856 737.377 668.935 737.097 670.087C736.817 671.239 736.784 672.437 736.999 673.603C737.215 674.768 737.674 675.875 738.348 676.851C741.084 681.103 747.018 682.883 751.765 683.246C757.415 682.883 762.975 681.649 768.247 679.587C768.874 683.609 769.566 687.564 770.456 691.421C770.885 693.103 771.214 694.718 771.709 696.366C772.203 698.014 772.599 699.663 773.06 701.113C774.115 704.41 775.071 707.278 776.126 710.244C776.653 711.728 777.181 713.112 777.708 714.563C776.489 712.288 774.412 708.728 774.214 708.431C770.489 703.289 760.237 695.509 753.446 697.718C752.33 698.117 751.31 698.747 750.453 699.567C749.597 700.387 748.922 701.378 748.474 702.476C748.027 703.574 747.815 704.754 747.854 705.939C747.893 707.124 748.181 708.288 748.699 709.354C750.743 713.969 756.347 716.64 760.962 717.727C765.577 718.815 777.082 716.771 778.401 716.508C779.719 720.035 781.038 723.463 782.29 726.661C786.345 736.748 790.07 744.99 792.773 750.725C795.476 756.461 797.158 759.692 797.158 759.692C797.471 760.253 797.99 760.67 798.606 760.854C799.221 761.039 799.884 760.977 800.454 760.681C801.009 760.362 801.42 759.842 801.604 759.229C801.788 758.616 801.731 757.956 801.443 757.384C801.443 757.384 799.762 754.286 796.96 748.649C794.158 743.012 790.367 734.968 786.081 725.079C784.862 722.211 783.609 719.178 782.356 716.046C783.642 715.42 793.696 710.574 797.059 706.552C800.421 702.531 802.927 697.289 801.806 692.377Z" fill="#263238"/>
<path d="M746.029 579.439C746.029 579.439 756.677 572.846 759.743 568.198C762.38 564.209 764.588 558.309 763.039 553.694C762.681 552.565 762.09 551.524 761.303 550.639C760.517 549.753 759.552 549.044 758.473 548.556C757.395 548.067 756.225 547.812 755.041 547.805C753.857 547.799 752.684 548.042 751.6 548.518C745.007 551.551 743.029 564.242 743.853 570.572C743.853 571.099 746.029 579.505 746.029 579.439Z" fill="#263238"/>
<path d="M908.283 527.091C913.788 531.179 928.886 534.211 928.886 534.211C928.886 534.211 927.897 523.663 927.732 523.003C925.985 515.388 918.173 501.675 909.437 500.884C907.984 500.799 906.53 501.021 905.169 501.534C903.808 502.047 902.569 502.841 901.534 503.863C900.499 504.886 899.691 506.115 899.161 507.47C898.631 508.825 898.392 510.276 898.459 511.729C898.525 517.762 903.569 523.465 908.283 527.091Z" fill="#263238"/>
<path d="M970.916 673.291C962.181 673.653 953.643 686.938 951.533 694.487C951.533 694.916 950.61 699.894 950.148 703.058C950.148 701.146 950.148 699.333 950.148 697.388C950.148 693.531 949.951 689.674 949.786 685.554C949.786 683.576 949.522 681.565 949.357 679.521C949.192 677.477 948.896 675.368 948.665 673.291C948.039 668.445 947.181 663.599 946.193 658.687C949.489 658.687 961.554 658.325 966.862 655.885C972.169 653.446 978.235 648.831 979.553 642.699C979.921 641.289 979.985 639.817 979.743 638.38C979.501 636.944 978.957 635.574 978.147 634.363C977.337 633.152 976.28 632.125 975.045 631.352C973.81 630.578 972.426 630.075 970.982 629.876C962.279 628.854 951.83 640.721 948.599 647.875C948.401 648.303 946.654 653.676 945.764 656.643C945.138 653.709 944.544 650.776 943.852 647.842C941.775 639.337 939.402 630.799 937.094 622.261C936.369 619.657 935.71 617.019 935.017 614.415C936.896 614.415 950.61 614.415 956.412 611.58C962.214 608.745 967.785 604.526 969.103 598.394C969.465 596.984 969.526 595.514 969.281 594.079C969.037 592.644 968.492 591.277 967.683 590.067C966.875 588.857 965.82 587.831 964.587 587.056C963.355 586.281 961.973 585.775 960.532 585.571C951.83 584.582 941.413 596.449 938.182 603.57C937.918 604.097 935.413 611.844 934.886 613.855C933.369 608.086 931.919 602.35 930.732 596.614C929.089 588.906 927.955 581.099 927.337 573.242C928.358 573.242 942.863 573.242 948.863 570.407C954.17 567.967 960.236 563.352 961.587 557.221C961.944 555.809 962 554.338 961.751 552.903C961.502 551.468 960.954 550.101 960.142 548.892C959.331 547.683 958.274 546.658 957.041 545.883C955.807 545.109 954.425 544.603 952.983 544.397C944.281 543.408 933.864 555.276 930.633 562.396C930.369 562.957 927.699 571.297 927.337 572.813C927.337 572.385 927.337 571.89 927.337 571.429C926.896 563.52 927.16 555.588 928.128 547.727C928.622 543.375 929.314 539.222 930.106 535.233C932.941 535.53 945.533 536.651 951.302 534.706C957.071 532.761 963.4 528.97 965.378 523.102C965.886 521.74 966.103 520.286 966.014 518.835C965.924 517.384 965.531 515.968 964.86 514.678C964.189 513.389 963.254 512.254 962.117 511.349C960.98 510.443 959.665 509.787 958.258 509.421C949.687 507.477 938.017 518.124 934.028 524.849C933.831 525.212 932.018 529.168 930.732 532.101C931.095 530.288 931.457 528.409 931.853 526.695C933.336 520.102 935.149 514.399 936.666 509.257C937.589 506.356 938.479 503.719 939.336 501.279C942.204 500.125 953.676 495.411 957.829 491.093C961.983 486.774 965.906 480.412 964.95 474.314C964.779 472.868 964.305 471.474 963.559 470.223C962.813 468.973 961.811 467.894 960.619 467.057C959.428 466.22 958.073 465.644 956.644 465.367C955.214 465.089 953.742 465.116 952.324 465.446C943.852 467.655 938.413 482.489 937.951 490.302C937.951 490.961 938.545 501.609 938.676 501.543H938.841C937.984 503.883 937.061 506.389 936.105 509.158C934.424 514.267 932.545 520.069 930.93 526.53C929.103 533.463 927.683 540.497 926.677 547.595C925.527 555.54 925.086 563.571 925.359 571.594V571.89C924.501 569.484 921.864 562.792 921.601 562.33C917.909 555.408 906.7 544.266 898.097 545.848C896.17 546.193 894.396 547.126 893.02 548.518C891.649 547.119 889.873 546.185 887.943 545.848C879.339 544.299 868.164 555.441 864.472 562.33C864.208 562.792 861.538 569.484 860.681 571.89C860.681 571.89 860.681 571.692 860.681 571.594C860.943 563.57 860.491 555.539 859.33 547.595C858.318 540.5 856.909 533.468 855.11 526.53C853.495 519.937 851.616 514.267 849.902 509.158C848.946 506.389 848.056 503.883 847.166 501.543H847.33C847.33 501.543 848.089 490.961 848.056 490.302C847.627 482.489 842.155 467.655 833.683 465.446C832.265 465.116 830.793 465.089 829.363 465.367C827.934 465.644 826.579 466.22 825.388 467.057C824.196 467.894 823.194 468.973 822.448 470.223C821.702 471.474 821.228 472.868 821.057 474.314C820.101 480.412 824.123 486.906 828.178 491.093C832.232 495.279 843.803 500.125 846.671 501.279C847.528 503.719 848.418 506.356 849.374 509.257C850.957 514.399 852.671 520.234 854.154 526.695C854.55 528.409 854.912 530.288 855.308 532.101C854.022 529.168 852.242 525.212 852.011 524.849C848.023 518.256 836.353 507.477 827.815 509.421C826.405 509.782 825.087 510.436 823.947 511.34C822.807 512.245 821.87 513.38 821.198 514.671C820.526 515.962 820.134 517.38 820.047 518.833C819.961 520.285 820.181 521.74 820.695 523.102C822.672 528.97 829.2 532.991 834.738 534.706C840.276 536.42 853.099 535.53 855.967 535.233C856.725 539.222 857.418 543.375 857.912 547.727C858.891 555.587 859.166 563.519 858.736 571.429C858.736 571.89 858.736 572.385 858.571 572.813C858.209 571.297 855.506 562.924 855.275 562.396C851.978 555.276 841.594 543.408 832.892 544.397C831.451 544.602 830.069 545.108 828.837 545.883C827.604 546.658 826.549 547.684 825.741 548.894C824.932 550.104 824.387 551.471 824.143 552.906C823.898 554.341 823.959 555.811 824.321 557.221C825.639 563.253 831.705 567.869 837.012 570.407C843.012 573.176 857.517 573.242 858.538 573.242C857.885 581.12 856.729 588.949 855.077 596.68C853.857 602.416 852.407 608.152 850.891 613.921C850.363 611.91 847.858 604.031 847.594 603.636C844.298 596.515 833.914 584.648 825.211 585.637C823.77 585.841 822.388 586.347 821.156 587.122C819.924 587.897 818.869 588.923 818.06 590.133C817.251 591.343 816.706 592.71 816.462 594.145C816.217 595.58 816.278 597.05 816.64 598.46C817.959 604.493 824.024 609.108 829.331 611.646C835.133 614.316 848.88 614.481 850.726 614.481C850.034 617.085 849.374 619.723 848.649 622.327C846.341 630.865 843.968 639.403 842.056 647.908C841.331 650.842 840.737 653.775 840.111 656.709C839.221 653.742 837.474 648.369 837.276 647.941C833.979 640.787 823.596 628.92 814.893 629.942C813.452 630.146 812.07 630.652 810.838 631.427C809.605 632.202 808.55 633.228 807.742 634.438C806.933 635.648 806.388 637.015 806.144 638.45C805.899 639.885 805.96 641.355 806.322 642.765C807.64 648.798 813.706 653.38 819.013 655.951C824.321 658.522 836.254 658.72 839.682 658.753C838.694 663.665 837.836 668.643 837.21 673.357C836.979 675.433 836.617 677.576 836.518 679.587C836.419 681.598 836.221 683.642 836.089 685.62C835.924 689.74 835.793 693.597 835.76 697.454C835.76 699.399 835.76 701.212 835.76 703.124C835.298 699.828 834.474 694.982 834.342 694.553C832.232 687.004 823.727 673.719 814.959 673.357C813.505 673.345 812.065 673.64 810.732 674.22C809.399 674.801 808.203 675.655 807.221 676.727C806.239 677.799 805.493 679.065 805.032 680.444C804.57 681.822 804.403 683.282 804.542 684.73C804.937 690.927 810.245 696.366 815.123 699.597C820.002 702.827 833.584 705.3 835.727 705.629C835.727 710.278 835.727 714.761 835.727 718.98C836.089 732.331 836.88 743.407 837.54 751.187C838.199 758.967 838.759 763.384 838.759 763.384C838.948 764.13 839.408 764.779 840.049 765.205C840.69 765.631 841.466 765.803 842.227 765.688C842.988 765.573 843.679 765.179 844.165 764.582C844.652 763.986 844.899 763.23 844.858 762.461C844.858 762.461 844.232 758.176 843.408 750.495C842.583 742.814 841.561 731.87 840.902 718.684C840.737 714.893 840.573 710.838 840.474 706.684C842.649 706.487 856 705.135 861.439 702.036C866.879 698.938 872.186 694.026 872.977 687.894C873.21 686.458 873.139 684.989 872.769 683.583C872.398 682.176 871.736 680.863 870.825 679.729C869.915 678.594 868.776 677.664 867.483 676.998C866.189 676.332 864.771 675.945 863.318 675.862C854.55 675.631 845.188 688.356 842.583 695.641C842.419 696.103 841.067 701.904 840.474 704.871C840.474 702.366 840.474 699.893 840.474 697.256C840.474 693.531 840.474 689.542 840.474 685.686C840.474 683.708 840.704 681.697 840.803 679.653C840.902 677.609 841.166 675.631 841.331 673.62C841.66 670.621 842.122 667.588 842.616 664.522C846.539 664.72 857.714 665.049 862.956 663.039C868.197 661.028 874.79 656.742 876.471 650.809C876.924 649.426 877.08 647.963 876.929 646.516C876.779 645.069 876.325 643.67 875.597 642.41C874.869 641.15 873.883 640.058 872.705 639.205C871.527 638.352 870.182 637.756 868.758 637.458C860.154 635.875 848.979 647.051 845.254 653.94L843.803 657.533C844.331 654.567 844.891 651.6 845.55 648.633C847.396 640.161 849.572 631.59 851.715 622.986L853 617.613C856.297 617.778 868.428 618.272 873.933 616.162C879.438 614.052 885.768 609.866 887.482 603.932C887.929 602.547 888.08 601.084 887.924 599.636C887.769 598.189 887.311 596.791 886.581 595.532C885.851 594.273 884.864 593.182 883.684 592.329C882.505 591.476 881.159 590.881 879.735 590.581C871.131 588.999 859.956 600.174 856.231 607.064C856.231 607.328 855.374 609.141 854.55 611.218C855.638 606.536 856.659 601.855 857.549 597.174C859.111 589.154 860.125 581.037 860.582 572.879C862.428 572.879 876.175 573.736 882.141 571.429C886.327 569.897 890.065 567.348 893.02 564.012C895.975 567.348 899.713 569.897 903.898 571.429C909.865 573.736 923.677 572.978 925.457 572.879C925.932 581.036 926.945 589.152 928.49 597.174C929.38 601.855 930.402 606.536 931.49 611.218C930.666 609.141 929.941 607.328 929.809 607.064C926.117 600.174 914.942 588.999 906.305 590.581C904.881 590.88 903.536 591.475 902.357 592.329C901.179 593.182 900.194 594.274 899.466 595.534C898.738 596.794 898.284 598.193 898.133 599.64C897.982 601.087 898.138 602.55 898.591 603.932C900.305 609.866 906.667 614.052 912.107 616.162C917.546 618.272 929.809 617.778 933.039 617.613C933.468 619.426 933.897 621.206 934.358 622.986C936.468 631.59 938.644 640.161 940.523 648.633C941.182 651.6 941.709 654.567 942.27 657.533C941.544 655.72 940.918 654.237 940.786 653.94C937.094 647.051 925.919 635.875 917.282 637.458C915.858 637.756 914.513 638.352 913.335 639.205C912.156 640.058 911.171 641.15 910.443 642.41C909.715 643.67 909.261 645.069 909.11 646.516C908.96 647.963 909.116 649.426 909.568 650.809C911.282 656.742 917.645 660.929 923.084 663.039C928.523 665.148 939.567 664.72 943.456 664.522C943.918 667.588 944.412 670.621 944.709 673.62C944.907 675.631 945.204 677.576 945.27 679.653C945.335 681.73 945.467 683.708 945.566 685.686C945.566 689.542 945.566 693.531 945.566 697.256C945.566 699.893 945.566 702.366 945.566 704.871C944.94 701.904 943.588 696.103 943.423 695.641C940.819 688.257 931.457 675.532 922.688 675.862C921.236 675.945 919.817 676.332 918.524 676.998C917.231 677.664 916.092 678.594 915.182 679.729C914.271 680.863 913.609 682.176 913.238 683.583C912.867 684.989 912.796 686.458 913.03 687.894C913.821 694.026 919.623 699.135 924.567 702.036C929.512 704.937 943.357 706.487 945.533 706.684C945.533 710.838 945.303 714.893 945.105 718.684C944.478 731.87 943.456 742.847 942.632 750.495C941.808 758.143 941.149 762.461 941.149 762.461C941.108 763.23 941.355 763.986 941.842 764.582C942.328 765.179 943.019 765.573 943.78 765.688C944.541 765.803 945.317 765.631 945.958 765.205C946.599 764.779 947.059 764.13 947.247 763.384C947.247 763.384 947.808 758.934 948.5 751.187C949.192 743.44 949.951 732.331 950.28 718.98C950.28 714.761 950.445 710.278 950.445 705.629C952.588 705.3 965.807 703.091 971.081 699.597C976.355 696.102 981.267 690.927 981.63 684.73C981.782 683.252 981.615 681.759 981.14 680.351C980.666 678.943 979.895 677.654 978.879 676.569C977.864 675.485 976.627 674.631 975.254 674.066C973.88 673.5 972.401 673.236 970.916 673.291Z" fill="#263238"/>
<path d="M182.953 841.017C182.953 841.017 183.513 863.4 187.304 875.399C190.06 883.611 193.364 891.629 197.194 899.398C197.194 899.398 183.019 907.046 176.459 907.606C169.899 908.167 161.196 878.663 161.196 858.488C161.196 838.314 168.778 832.281 182.953 841.017Z" fill="#E58A7B" stroke="#263238" stroke-width="0.48509" stroke-linecap="round" stroke-linejoin="round"/>
<path d="M143.428 782.372C143.428 782.372 166.503 781.515 175.305 788.075C184.107 794.635 187.304 823.545 190.04 835.017L192.776 846.489C186.357 849.021 179.742 851.027 172.997 852.489C170.426 852.679 167.871 853.043 165.349 853.577C165.349 853.577 158.394 813.887 150.218 802.283C146.084 796.313 141.523 790.65 136.571 785.339C136.571 785.339 132.879 780.922 143.428 782.372Z" fill="white" stroke="#263238" stroke-width="0.48509" stroke-linecap="round" stroke-linejoin="round"/>
<path d="M124.571 747.132C122.665 754.436 119.723 761.43 115.836 767.9C109.243 778.812 106.54 786.427 86.3649 786.987C66.1903 787.547 55.8064 803.997 47.1695 853.016C38.5327 902.035 33.522 956.164 48.2574 990.546C62.9927 1024.93 106.507 1021.57 134.922 1011.28C163.338 1001 169.865 968.723 170.393 933.813C170.92 898.903 170.953 843.753 165.481 815.897C160.009 788.042 144.219 782.075 137.098 779.9C129.978 777.724 139.307 764.604 139.307 764.604L124.571 747.132Z" fill="white"/>
<mask id="mask1_46_238" style="mask-type:luminance" maskUnits="userSpaceOnUse" x="38" y="747" width="133" height="272">
<path d="M124.571 747.132C122.665 754.436 119.723 761.43 115.836 767.9C109.243 778.812 106.54 786.427 86.3649 786.987C66.1903 787.547 55.8064 803.997 47.1695 853.016C38.5327 902.035 33.522 956.164 48.2574 990.546C62.9927 1024.93 106.507 1021.57 134.922 1011.28C163.338 1001 169.865 968.723 170.393 933.813C170.92 898.903 170.953 843.753 165.481 815.897C160.009 788.042 144.219 782.075 137.098 779.9C129.978 777.724 139.307 764.604 139.307 764.604L124.571 747.132Z" fill="white"/>
</mask>
<g mask="url(#mask1_46_238)">
<g opacity="0.4" style="mix-blend-mode:multiply">
<path d="M66.9482 854.236C66.9482 854.236 62.1353 867.422 70.6732 877.674C79.2112 887.926 100.342 883.014 96.2541 887.794C92.1664 892.574 73.8708 898.475 70.6732 903.255C69.7362 904.46 69.1846 905.919 69.0905 907.442C68.9964 908.966 69.3642 910.482 70.1458 911.793C70.1458 911.793 53.3336 914.793 52.1469 911.958C50.9601 909.123 62.0364 869.4 62.0364 869.4L66.9482 854.236Z" fill="#3293CF"/>
</g>
<g opacity="0.4" style="mix-blend-mode:multiply">
<path d="M72.0911 926.726C72.0911 926.726 60.3885 939.517 60.916 943.209C61.4434 946.901 72.0911 938.429 69.9814 943.736C67.8716 949.043 58.7732 957.614 56.1031 961.867C53.4329 966.119 42.9171 973.668 42.9171 973.668L39.159 944.824L38.4338 939.78L72.0911 926.726Z" fill="#3293CF"/>
</g>
</g>
<path d="M124.571 747.132C122.665 754.436 119.723 761.43 115.836 767.9C109.243 778.812 106.54 786.427 86.3649 786.987C66.1903 787.547 55.8064 803.997 47.1695 853.016C38.5327 902.035 33.522 956.164 48.2574 990.546C62.9927 1024.93 106.507 1021.57 134.922 1011.28C163.338 1001 169.865 968.723 170.393 933.813C170.92 898.903 170.953 843.753 165.481 815.897C160.009 788.042 144.219 782.075 137.098 779.9C129.978 777.724 139.307 764.604 139.307 764.604L124.571 747.132Z" stroke="#263238" stroke-width="0.48509" stroke-linecap="round" stroke-linejoin="round"/>
<path d="M143.428 782.372C141.388 781.379 139.271 780.552 137.098 779.9C130.011 777.724 139.307 764.604 139.307 764.604L124.572 747.132C122.665 754.436 119.724 761.43 115.836 767.9C110.265 777.163 107.43 784.053 94.3098 786.262C98.4711 792.258 101.509 798.959 103.276 806.041C106.573 820.249 113.627 843.16 126.747 837.72C139.208 832.545 148.669 802.645 143.428 782.372Z" fill="#E58A7B"/>
<mask id="mask2_46_238" style="mask-type:luminance" maskUnits="userSpaceOnUse" x="94" y="747" width="51" height="92">
<path d="M143.428 782.372C141.388 781.379 139.271 780.552 137.098 779.9C130.011 777.724 139.307 764.604 139.307 764.604L124.572 747.132C122.665 754.436 119.724 761.43 115.836 767.9C110.265 777.163 107.43 784.053 94.3098 786.262C98.4711 792.258 101.509 798.959 103.276 806.041C106.573 820.249 113.627 843.16 126.747 837.72C139.208 832.545 148.669 802.645 143.428 782.372Z" fill="white"/>
</mask>
<g mask="url(#mask2_46_238)">
<g opacity="0.4" style="mix-blend-mode:multiply">
<path d="M109.407 785.998C105.951 788.453 102.09 790.283 98.0015 791.405L94.705 785.768C94.705 785.768 108.32 787.449 121.934 756.099C124.895 761.904 129.079 766.999 134.197 771.032L117.945 773.109" fill="#795954"/>
</g>
</g>
<path d="M143.428 782.372C141.388 781.379 139.271 780.552 137.098 779.9C130.011 777.724 139.307 764.604 139.307 764.604L124.572 747.132C122.665 754.436 119.724 761.43 115.836 767.9C110.265 777.163 107.43 784.053 94.3098 786.262C98.4711 792.258 101.509 798.959 103.276 806.041C106.573 820.249 113.627 843.16 126.747 837.72C139.208 832.545 148.669 802.645 143.428 782.372Z" stroke="#263238" stroke-width="0.48509" stroke-linecap="round" stroke-linejoin="round"/>
<path d="M68.2998 849.159L83.9911 835.215" stroke="#263238" stroke-width="0.48509" stroke-linecap="round" stroke-linejoin="round"/>
<path d="M86.3647 786.987C86.3647 786.987 90.9798 793.317 94.4741 811.645C97.9684 829.974 108.418 846.555 118.901 850.016C129.384 853.478 134.593 850.016 134.593 850.016" stroke="#263238" stroke-width="0.48509" stroke-linecap="round" stroke-linejoin="round"/>
<path d="M34.5112 847.577C34.5112 847.577 26.3359 920.1 25.7755 932.693C25.2151 945.286 30.1268 941.989 38.3351 939.813C46.5434 937.638 93.4527 916.738 104.265 913.046C115.078 909.354 116.825 908.134 125.561 909.222C133.208 910.368 140.911 911.105 148.636 911.43C154.108 911.43 148.076 898.871 139.9 896.695C131.725 894.519 132.253 895.047 122.989 897.222C113.726 899.398 98.9579 905.958 83.1347 909.222C67.3114 912.485 53.6639 913.606 52.0486 911.958C50.4333 910.31 61.9381 862.84 61.9381 862.84L34.5112 847.577Z" fill="#E58A7B" stroke="#263238" stroke-width="0.48509" stroke-linecap="round" stroke-linejoin="round"/>
<path d="M94.3097 786.262C88.2247 786.988 82.0782 787.044 75.9811 786.427C70.4041 786.03 64.8056 786.801 59.5437 788.691C54.2818 790.581 49.4722 793.549 45.4225 797.404C36.6868 806.107 28.94 834.49 25.6435 841.61C22.347 848.731 21.2921 851.961 21.2921 851.961L61.6743 869.433L78.5853 821.402" fill="white"/>
<mask id="mask3_46_238" style="mask-type:luminance" maskUnits="userSpaceOnUse" x="21" y="786" width="74" height="84">
<path d="M94.3097 786.262C88.2247 786.988 82.0782 787.044 75.9811 786.427C70.4041 786.03 64.8056 786.801 59.5437 788.691C54.2818 790.581 49.4722 793.549 45.4225 797.404C36.6868 806.107 28.94 834.49 25.6435 841.61C22.347 848.731 21.2921 851.961 21.2921 851.961L61.6743 869.433L78.5853 821.402" fill="white"/>
</mask>
<g mask="url(#mask3_46_238)">
<g opacity="0.4" style="mix-blend-mode:multiply">
<path d="M93.8814 785.899C85.9445 786.754 77.9641 787.139 69.9818 787.053C65.1599 787.123 60.4133 788.259 56.082 790.379C51.7506 792.499 47.9418 795.551 44.9284 799.316C37.4453 807.854 22.1165 851.632 22.1165 851.632L31.5116 855.653C31.5116 855.653 41.7307 807.854 53.4333 800.404C63.7218 794.271 75.5877 791.302 87.5522 791.866C90.8487 791.866 94.5408 791.635 96.8813 791.405L93.8814 785.899Z" fill="#3293CF"/>
</g>
</g>
<path d="M94.3097 786.262C88.2247 786.988 82.0782 787.044 75.9811 786.427C70.4041 786.03 64.8056 786.801 59.5437 788.691C54.2818 790.581 49.4722 793.549 45.4225 797.404C36.6868 806.107 28.94 834.49 25.6435 841.61C22.347 848.731 21.2921 851.961 21.2921 851.961L61.6743 869.433L78.5853 821.402" stroke="#263238" stroke-width="0.48509" stroke-linecap="round" stroke-linejoin="round"/>
<path d="M42.9828 968.822C42.9828 968.822 59.4654 953.988 70.9042 953.131" stroke="#263238" stroke-width="0.48509" stroke-linecap="round" stroke-linejoin="round"/>
<path d="M72.6516 946.01C64.5484 949.581 56.6764 953.654 49.0816 958.207" stroke="#263238" stroke-width="0.48509" stroke-linecap="round" stroke-linejoin="round"/>
<path d="M174.85 731.932C181.29 706.35 174.603 682.613 159.914 678.916C145.224 675.218 128.096 692.959 121.656 718.541C115.216 744.124 121.903 767.86 136.592 771.558C151.281 775.256 168.41 757.515 174.85 731.932Z" fill="#E58A7B"/>
<mask id="mask4_46_238" style="mask-type:luminance" maskUnits="userSpaceOnUse" x="119" y="678" width="59" height="95">
<path d="M174.85 731.932C181.29 706.349 174.603 682.613 159.913 678.915C145.224 675.217 128.096 692.958 121.656 718.541C115.215 744.123 121.903 767.859 136.592 771.557C151.281 775.255 168.41 757.514 174.85 731.932Z" fill="white"/>
</mask>
<g mask="url(#mask4_46_238)">
<g opacity="0.4" style="mix-blend-mode:multiply">
<path d="M133.801 770.57C131.955 766.878 129.516 758.011 131.263 752.407C133.933 743.902 148.306 734.342 148.306 734.342C148.306 734.342 141.713 735.924 135.12 736.946C128.527 737.968 119.395 739.451 119.395 739.451L121.67 755.407C124.736 762.593 128.461 768.461 133.801 770.57Z" fill="#795954"/>
</g>
</g>
<path d="M174.85 731.932C181.29 706.35 174.603 682.613 159.914 678.916C145.224 675.218 128.096 692.959 121.656 718.541C115.216 744.124 121.903 767.86 136.592 771.558C151.281 775.256 168.41 757.515 174.85 731.932Z" stroke="#263238" stroke-width="0.48509" stroke-linecap="round" stroke-linejoin="round"/>
<g opacity="0.4" style="mix-blend-mode:multiply">
<path d="M121.868 756.824C119.363 761.769 111.583 777.197 103.539 782.273C101.269 783.736 98.7908 784.848 96.1883 785.57" fill="#3293CF"/>
</g>
<g opacity="0.4" style="mix-blend-mode:multiply">
<path d="M134.988 837.72C134.988 837.72 137.131 868.081 134.988 875.564C132.846 883.047 124.341 882.487 128.593 886.739C133.226 890.596 138.228 893.986 143.526 896.86L150.977 904.343L152.658 893.003C152.658 893.003 147.317 894.618 141.977 875.96C138.569 863.434 136.231 850.642 134.988 837.72Z" fill="#3293CF"/>
</g>
<path d="M160.372 738.528C158.639 741.039 157.511 743.916 157.075 746.934C157.075 747.923 157.075 748.813 157.075 749.539C157.105 749.885 157.059 750.234 156.94 750.561C156.822 750.888 156.634 751.186 156.39 751.433C156.145 751.681 155.85 751.873 155.525 751.995C155.199 752.117 154.851 752.168 154.504 752.143L150.581 751.846" stroke="#263238" stroke-width="0.48509" stroke-linecap="round" stroke-linejoin="round"/>
<path d="M143.592 759.758C141.77 759.961 139.939 759.459 138.474 758.356C137.01 757.253 136.022 755.632 135.714 753.824" stroke="#263238" stroke-width="0.48509" stroke-linecap="round" stroke-linejoin="round"/>
<path d="M149.526 737.54L147.548 741.495C146.392 742.047 145.086 742.2 143.834 741.932C142.582 741.664 141.454 740.989 140.625 740.012" stroke="#263238" stroke-width="0.48509" stroke-linecap="round" stroke-linejoin="round"/>
<path d="M165.284 743.474L162.35 747.429C162.35 747.429 158.394 747.429 158.394 744.463" stroke="#263238" stroke-width="0.48509" stroke-linecap="round" stroke-linejoin="round"/>
<path d="M180.909 708.398C187.502 688.982 171.448 668.84 147.482 669.269C123.517 669.697 106.738 693.136 98.793 709.19C91.3638 716.635 84.9766 725.051 79.8051 734.21C69.9156 751.121 69.9156 760.945 62.3336 771.856C54.7517 782.768 32.3354 783.328 19.2153 797.536C6.09526 811.744 6.02932 828.094 12.1279 839.006C18.2264 849.917 22.0174 864.092 14.3035 873.916C6.58973 883.739 -0.959261 896.991 5.04038 919.243C6.1688 924.211 8.78728 928.717 12.5457 932.158C16.3041 935.598 21.0232 937.809 26.0721 938.494C25.7429 936.635 25.6432 934.741 25.7754 932.857C26.2039 922.968 31.2146 877.443 33.4233 857.302L21.424 852.093C21.424 852.093 22.5118 848.797 25.7754 841.742C29.0389 834.688 36.6868 806.239 45.5544 797.536C49.6069 793.687 54.4177 790.725 59.6795 788.841C64.9413 786.956 70.5383 786.19 76.113 786.592C82.2101 787.209 88.3565 787.153 94.4416 786.427C98.1169 785.979 101.628 784.644 104.672 782.536C107.716 780.429 110.201 777.612 111.913 774.329L112.77 772.911V772.746C113.693 771.23 114.616 769.615 115.638 767.933C118.005 763.945 120.034 759.766 121.704 755.44C120.04 750.281 119.151 744.904 119.066 739.484C129.813 739.122 159.548 736.485 174.58 718.815C175.47 717.728 176.294 716.64 177.019 715.519C176.804 721.081 176.009 726.605 174.646 732.001C171.872 744.397 165.616 755.742 156.614 764.703L155.031 766.054L154.042 766.845C153.548 767.208 153.086 767.571 152.592 767.867C152.245 768.122 151.881 768.353 151.504 768.56C151.057 768.858 150.595 769.134 150.12 769.384L148.966 769.977L147.581 770.57L146.427 770.999L145.043 771.428L143.889 771.724C141.426 772.285 138.869 772.285 136.406 771.724L135.45 771.395C134.401 773.363 134.063 775.634 134.494 777.823C134.664 778.374 134.976 778.872 135.398 779.265C135.82 779.658 136.338 779.934 136.901 780.064C139.016 780.7 141.078 781.505 143.065 782.471C141.809 795.797 139.606 809.016 136.472 822.029C131 844.94 136.999 866.762 143.559 882.586C150.12 898.409 170.294 908.233 177.382 899.068C184.469 889.904 182.293 879.982 177.942 858.126C173.591 836.27 162.119 804.656 162.119 780.625C162.119 756.593 176.294 748.978 183.414 734.803C188.524 724.551 183.975 713.739 180.909 708.398Z" fill="#263238"/>
<path d="M174.25 701.047C174.25 701.047 149.065 723.101 124.802 725.474C100.54 727.847 98.0347 727.815 98.0347 727.815" stroke="white" stroke-width="0.345985" stroke-linecap="round" stroke-linejoin="round"/>
<path d="M168.745 684.499C168.745 684.499 145.9 710.508 127.011 716.805C108.122 723.101 100.243 723.101 100.243 723.101" stroke="white" stroke-width="0.345985" stroke-linecap="round" stroke-linejoin="round"/>
<path d="M155.361 675.071C155.361 675.071 149.065 694.85 134.099 704.212" stroke="white" stroke-width="0.345985" stroke-linecap="round" stroke-linejoin="round"/>
<path d="M112.045 749.077C112.045 749.077 111.253 774.295 97.0784 778.218C82.9035 782.141 67.1791 774.295 49.0484 783.723C41.9721 787.53 36.2229 793.402 32.5659 800.557C28.9089 807.712 27.5176 815.811 28.5771 823.776" stroke="white" stroke-width="0.345985" stroke-linecap="round" stroke-linejoin="round"/>
<path d="M23.0724 930.187C19.3169 924.737 16.8061 918.528 15.718 911.999C14.6299 905.471 14.9911 898.783 16.7761 892.409C23.0724 871.147 27.7864 863.268 27.7864 863.268" stroke="white" stroke-width="0.345985" stroke-linecap="round" stroke-linejoin="round"/>
<path d="M162.547 790.02C162.547 790.02 166.47 819.952 153.086 838.841C139.702 857.73 148.372 883.74 148.372 883.74" stroke="white" stroke-width="0.345985" stroke-linecap="round" stroke-linejoin="round"/>
<path d="M163.24 762.461C163.24 762.461 164.031 771.131 152.988 793.184C141.944 815.238 138.813 822.325 138.022 838.083" stroke="white" stroke-width="0.345985" stroke-linecap="round" stroke-linejoin="round"/>
<path d="M238.828 1013.19C238.828 1013.19 256.53 1011.48 266.783 1016.03C277.035 1020.58 279.342 1027.99 281.617 1021.17C283.891 1014.35 283.891 1010.33 275.353 1005.78C266.816 1001.23 263.354 1004.06 259.959 1000.63C258.292 998.845 256.37 997.312 254.256 996.084C254.256 996.084 245.125 994.931 244.531 1000.07C243.938 1005.22 235.433 1006.9 235.433 1006.9L238.828 1013.19Z" fill="#E58A7B" stroke="#263238" stroke-width="0.48509" stroke-miterlimit="10"/>
<path d="M312.834 879.223C306.835 865.576 281.814 874.938 252.805 898.31C215.258 928.572 186.084 935.627 170.393 936.846V936.352C162.217 932.528 150.614 932.363 136.801 934.605C136.373 933.978 135.944 933.352 135.548 932.693C109.176 891.783 102.254 884.696 93.5181 891.783C84.7823 898.871 74.9587 909.782 78.2223 943.637C78.5135 946.3 79.0206 948.935 79.7387 951.516C66.7561 957.685 54.4117 965.116 42.8838 973.701C44.1519 979.466 45.9393 985.104 48.2241 990.546C62.8935 1024.83 106.341 1021.7 134.724 1011.38C143.307 1016.02 152.633 1019.13 162.283 1020.58C184.765 1023.38 199.962 1022.56 208.863 1019.16L223.961 1031.49C247.726 1013.46 267.86 991.086 283.298 965.559C290.824 952.829 297.497 939.614 303.275 926.001C312.67 904.738 315.867 886.08 312.834 879.223Z" fill="#263238"/>
<path d="M135.483 932.561C138.626 937.476 142.061 942.198 145.768 946.703L248.257 928.308L215.984 902.464L124.572 915.848C127.703 920.661 131.363 926.265 135.483 932.561Z" fill="#3293CF" stroke="#263238" stroke-width="0.48509" stroke-linecap="round" stroke-linejoin="round"/>
<path opacity="0.5" d="M135.483 932.561C138.626 937.476 142.061 942.198 145.768 946.703L248.257 928.308L215.984 902.464L124.572 915.848C127.703 920.661 131.363 926.265 135.483 932.561Z" fill="white" stroke="#263238" stroke-width="0.52825" stroke-linecap="round" stroke-linejoin="round"/>
<path d="M158.295 872.004L142.34 942.45C143.461 943.933 144.615 945.384 145.636 946.801L248.257 928.308L268.53 854.532L158.295 872.004Z" fill="#3293CF" stroke="#263238" stroke-width="0.48509" stroke-linecap="round" stroke-linejoin="round"/>
<path d="M210.511 912.98C208.527 913.542 206.421 913.507 204.456 912.879C202.492 912.25 200.756 911.056 199.467 909.446C198.178 907.835 197.393 905.881 197.209 903.826C197.026 901.772 197.453 899.709 198.437 897.896C199.42 896.083 200.917 894.6 202.739 893.634C204.561 892.667 206.628 892.26 208.681 892.462C210.733 892.665 212.68 893.469 214.279 894.773C215.877 896.077 217.054 897.823 217.665 899.794C218.445 902.49 218.131 905.386 216.793 907.854C215.454 910.322 213.197 912.163 210.511 912.98Z" fill="white"/>
<path opacity="0.5" d="M158.295 872.004L142.34 942.45C143.461 943.933 144.615 945.384 145.636 946.801L248.257 928.308L268.53 854.532L158.295 872.004Z" fill="white" stroke="#263238" stroke-width="0.52825" stroke-linecap="round" stroke-linejoin="round"/>
<path d="M210.511 912.98C208.527 913.542 206.421 913.507 204.456 912.879C202.492 912.25 200.756 911.056 199.467 909.446C198.178 907.835 197.393 905.881 197.209 903.826C197.026 901.772 197.453 899.709 198.437 897.896C199.42 896.083 200.917 894.6 202.739 893.634C204.561 892.667 206.628 892.26 208.681 892.462C210.733 892.665 212.68 893.469 214.279 894.773C215.877 896.077 217.054 897.823 217.665 899.794C218.445 902.49 218.131 905.386 216.793 907.854C215.454 910.322 213.197 912.163 210.511 912.98Z" fill="white" stroke="#263238" stroke-width="0.52825" stroke-linecap="round" stroke-linejoin="round"/>
<path d="M205.402 1013.42C205.402 1013.42 191.293 1023.91 183.348 1028.26C175.403 1032.61 172.865 1031.13 165.25 1038.38C157.635 1045.63 151.174 1050.67 149.361 1053.58C147.548 1056.48 145.372 1059.34 144.285 1052.85C143.84 1049.52 144.275 1046.13 145.548 1043.02C146.82 1039.9 148.885 1037.18 151.537 1035.12C156.58 1031.49 163.47 1030.04 163.47 1025.23C163.304 1023.12 163.966 1021.04 165.315 1019.42C166.664 1017.8 168.593 1016.77 170.69 1016.56C174.678 1016.56 177.283 1020.51 184.799 1016.56C189.965 1013.36 194.204 1008.87 197.095 1003.53L205.402 1013.42Z" fill="#E58A7B" stroke="#263238" stroke-width="0.48509" stroke-miterlimit="10"/>
<path d="M80.5963 955.142C80.5963 955.142 96.1888 992.425 132.121 1009.37" stroke="white" stroke-width="0.345985" stroke-miterlimit="10"/>
<path d="M201.809 985.667C201.809 985.667 224.126 974.492 256.827 917.99" stroke="white" stroke-width="0.345985" stroke-miterlimit="10"/>
<path d="M141.977 943.604C141.977 943.604 165.613 978.25 193.171 990.052" stroke="white" stroke-width="0.345985" stroke-miterlimit="10"/>
<path d="M566.172 590.878H363.766C349.802 590.878 338.482 602.198 338.482 616.163V1043.46C338.482 1057.42 349.802 1068.74 363.766 1068.74H566.172C580.136 1068.74 591.456 1057.42 591.456 1043.46V616.163C591.456 602.198 580.136 590.878 566.172 590.878Z" fill="#263238"/>
<path d="M580.215 643.358H349.723V1016.29H580.215V643.358Z" fill="white"/>
<mask id="mask5_46_238" style="mask-type:luminance" maskUnits="userSpaceOnUse" x="349" y="643" width="232" height="374">
<path d="M580.215 643.358H349.723V1016.29H580.215V643.358Z" fill="white"/>
</mask>
<g mask="url(#mask5_46_238)">
<g opacity="0.4" style="mix-blend-mode:multiply">
<path d="M580.215 890.959L365.349 1016.26H580.215V890.959Z" fill="#3293CF"/>
</g>
</g>
<path d="M580.215 643.358H349.723V1016.29H580.215V643.358Z" stroke="#263238" stroke-width="0.52825" stroke-miterlimit="10"/>
<path d="M490.022 617.25H439.915C439.041 617.25 438.203 616.903 437.584 616.285C436.966 615.666 436.619 614.828 436.619 613.954C436.619 613.079 436.966 612.241 437.584 611.623C438.203 611.004 439.041 610.657 439.915 610.657H490.022C490.897 610.657 491.735 611.004 492.353 611.623C492.971 612.241 493.319 613.079 493.319 613.954C493.319 614.828 492.971 615.666 492.353 616.285C491.735 616.903 490.897 617.25 490.022 617.25Z" fill="#3293CF"/>
<path opacity="0.4" d="M490.022 617.25H439.915C439.041 617.25 438.203 616.903 437.584 616.285C436.966 615.666 436.619 614.828 436.619 613.954C436.619 613.079 436.966 612.241 437.584 611.623C438.203 611.004 439.041 610.657 439.915 610.657H490.022C490.897 610.657 491.735 611.004 492.353 611.623C492.971 612.241 493.319 613.079 493.319 613.954C493.319 614.828 492.971 615.666 492.353 616.285C491.735 616.903 490.897 617.25 490.022 617.25Z" fill="white"/>
<path d="M478.649 1037.32C478.649 1034.62 477.847 1031.97 476.344 1029.72C474.841 1027.47 472.704 1025.72 470.204 1024.68C467.704 1023.65 464.954 1023.38 462.3 1023.91C459.646 1024.43 457.209 1025.74 455.295 1027.65C453.382 1029.56 452.079 1032 451.551 1034.66C451.023 1037.31 451.294 1040.06 452.33 1042.56C453.365 1045.06 455.119 1047.2 457.368 1048.7C459.618 1050.2 462.263 1051 464.969 1051C468.597 1051 472.077 1049.56 474.642 1047C477.208 1044.43 478.649 1040.95 478.649 1037.32Z" fill="#3293CF" stroke="#263238" stroke-width="0.704333" stroke-miterlimit="10"/>
<path d="M471.892 1030.4H458.046V1044.25H471.892V1030.4Z" fill="#3293CF" stroke="#263238" stroke-width="0.52825" stroke-linecap="round" stroke-linejoin="round"/>
<path opacity="0.6" d="M471.892 1030.4H458.046V1044.25H471.892V1030.4Z" fill="white" stroke="#263238" stroke-width="0.52825" stroke-linecap="round" stroke-linejoin="round"/>
<path d="M471.892 1030.4H458.046V1044.25H471.892V1030.4Z" stroke="#263238" stroke-width="0.52825" stroke-linecap="round" stroke-linejoin="round"/>
<path d="M1250.99 1033.07V738.133C1250.99 717.779 1234.49 701.278 1214.13 701.278H591.521C571.167 701.278 554.666 717.779 554.666 738.133V1033.07C554.666 1053.43 571.167 1069.93 591.521 1069.93H1214.13C1234.49 1069.93 1250.99 1053.43 1250.99 1033.07Z" fill="#3293CF" stroke="#263238" stroke-width="0.868674" stroke-miterlimit="10"/>
<path d="M1213.87 1053.54V717.662H591.785V1053.54H1213.87Z" fill="white"/>
<mask id="mask6_46_238" style="mask-type:luminance" maskUnits="userSpaceOnUse" x="591" y="717" width="623" height="337">
<path d="M1213.87 1053.54V717.662H591.786V1053.54H1213.87Z" fill="white"/>
</mask>
<g mask="url(#mask6_46_238)">
<g opacity="0.4" style="mix-blend-mode:multiply">
<path d="M1213.87 785.075L753.578 1053.51H1213.87V785.075Z" fill="#3293CF"/>
</g>
</g>
<path d="M1213.87 1053.54V717.662H591.785V1053.54H1213.87Z" stroke="#263238" stroke-width="0.651505" stroke-miterlimit="10"/>
<path d="M1230.61 890.629C1229.61 890.629 1228.63 890.331 1227.79 889.771C1226.96 889.212 1226.3 888.417 1225.92 887.488C1225.54 886.558 1225.44 885.536 1225.64 884.55C1225.84 883.564 1226.32 882.66 1227.04 881.951C1227.75 881.243 1228.66 880.762 1229.64 880.57C1230.63 880.377 1231.65 880.483 1232.58 880.872C1233.51 881.261 1234.3 881.917 1234.85 882.756C1235.41 883.595 1235.7 884.58 1235.69 885.586C1235.68 886.926 1235.14 888.209 1234.19 889.154C1233.24 890.099 1231.96 890.629 1230.61 890.629Z" fill="#263238"/>
<path d="M1140.49 704.641H1162.74C1163.41 704.641 1163.96 704.094 1163.96 703.421V702.498C1163.96 701.824 1163.41 701.278 1162.74 701.278H1140.49C1139.81 701.278 1139.27 701.824 1139.27 702.498V703.421C1139.27 704.094 1139.81 704.641 1140.49 704.641Z" fill="#3293CF" stroke="#263238" stroke-width="0.652671" stroke-miterlimit="10"/>
<path d="M1061.9 704.607H1104.52C1104.75 704.612 1104.97 704.572 1105.18 704.489C1105.38 704.407 1105.57 704.283 1105.73 704.127C1105.89 703.97 1106.02 703.783 1106.11 703.577C1106.19 703.371 1106.24 703.15 1106.24 702.926C1106.24 702.703 1106.19 702.481 1106.11 702.275C1106.02 702.069 1105.89 701.882 1105.73 701.726C1105.57 701.569 1105.38 701.446 1105.18 701.363C1104.97 701.281 1104.75 701.241 1104.52 701.245H1061.9C1061.45 701.245 1061.03 701.422 1060.71 701.737C1060.4 702.053 1060.22 702.48 1060.22 702.926C1060.22 703.372 1060.4 703.8 1060.71 704.115C1061.03 704.43 1061.45 704.607 1061.9 704.607Z" fill="#3293CF" stroke="#263238" stroke-width="0.652671" stroke-miterlimit="10"/>
<path d="M1179.02 1079.26C1179.02 1084.17 1149.62 1088.16 1113.36 1088.16C1077.1 1088.16 1047.66 1084.2 1047.66 1079.26C1047.66 1074.31 1077.06 1070.32 1113.36 1070.32C1149.65 1070.32 1179.02 1074.31 1179.02 1079.26Z" fill="#3293CF"/>
<path d="M1056.82 947.131C1056.82 1022.16 1116.16 1082.95 1116.16 1082.95C1116.16 1082.95 1175.5 1022.16 1175.5 947.131C1175.5 872.103 1116.16 811.315 1116.16 811.315C1116.16 811.315 1056.82 872.103 1056.82 947.131Z" fill="#2A3826"/>
<path d="M1116.26 1082.95V811.315" stroke="white" stroke-width="0.738" stroke-miterlimit="10"/>
<path d="M1116.26 907.87L1082.96 878.828" stroke="white" stroke-width="0.738" stroke-miterlimit="10"/>
<path d="M1116.79 952.769L1157.96 893.069" stroke="white" stroke-width="0.738" stroke-miterlimit="10"/>
<path d="M1116.26 978.646L1067.14 934.802" stroke="white" stroke-width="0.738" stroke-miterlimit="10"/>
<path d="M1116.79 1013.49L1165.38 970.174" stroke="white" stroke-width="0.738" stroke-miterlimit="10"/>
<path d="M1116.79 1043.59L1078.75 1013.49" stroke="white" stroke-width="0.738" stroke-miterlimit="10"/>
<path d="M1015.65 1044.64C1044.53 1077.21 1093.68 1080.71 1093.68 1080.71C1093.68 1080.71 1096.08 1031.49 1067.31 998.919C1038.53 966.35 989.277 962.855 989.277 962.855C989.277 962.855 986.673 1012.24 1015.65 1044.64Z" fill="#2A3826"/>
<path d="M1093.68 1080.84L989.179 962.988" stroke="white" stroke-width="0.738" stroke-miterlimit="10"/>
<path d="M1026.33 1004.89L1000.72 1005.08" stroke="white" stroke-width="0.738" stroke-miterlimit="10"/>
<path d="M1043.83 1024.17L1038.73 982.437" stroke="white" stroke-width="0.738" stroke-miterlimit="10"/>
<path d="M1053.56 1035.58L1015.39 1035.48" stroke="white" stroke-width="0.738" stroke-miterlimit="10"/>
<path d="M1067.21 1050.51L1071.62 1013.03" stroke="white" stroke-width="0.738" stroke-miterlimit="10"/>
<path d="M1078.78 1063.56L1050.69 1065.15" stroke="white" stroke-width="0.738" stroke-miterlimit="10"/>
<path d="M1167.09 997.93C1136.76 1029.12 1136.93 1078.43 1136.93 1078.43C1136.93 1078.43 1186.21 1077.15 1216.51 1045.93C1246.8 1014.71 1246.67 965.526 1246.67 965.526C1246.67 965.526 1197.39 966.713 1167.09 997.93Z" fill="#2A3826"/>
<path d="M1136.93 1078.43L1246.67 965.427" stroke="white" stroke-width="0.738" stroke-miterlimit="10"/>
<path d="M1207.67 1005.58L1205.56 980.063" stroke="white" stroke-width="0.738" stroke-miterlimit="10"/>
<path d="M1189.74 1024.47L1230.98 1016.29" stroke="white" stroke-width="0.738" stroke-miterlimit="10"/>
<path d="M1179.06 1035.02L1176.35 996.941" stroke="white" stroke-width="0.738" stroke-miterlimit="10"/>
<path d="M1165.21 1049.75L1202.92 1051.33" stroke="white" stroke-width="0.738" stroke-miterlimit="10"/>
<path d="M1153.05 1062.28L1149.39 1034.39" stroke="white" stroke-width="0.738" stroke-miterlimit="10"/>
</svg>
