<svg width="775" height="818" viewBox="0 0 775 818" fill="none" xmlns="http://www.w3.org/2000/svg">
<path d="M1 743.239H773.367" stroke="white" stroke-width="2" stroke-linecap="round" stroke-linejoin="round"/>
<path d="M438.604 155.6V126.612L416.891 124.766C415.622 120.233 413.825 115.864 411.537 111.749L425.55 95.1321L405.056 74.6376L388.439 88.6514C384.359 86.3547 380.02 84.5511 375.514 83.2785L373.668 61.5654H344.44L342.594 83.2785C338.088 84.5511 333.749 86.3547 329.669 88.6514L313.052 74.6376L292.557 95.1321L306.571 111.749C304.283 115.864 302.486 120.233 301.217 124.766L279.504 126.612V155.6L301.217 157.447C302.493 161.948 304.29 166.286 306.571 170.371L292.557 186.988L313.052 207.483L329.669 193.469C333.749 195.766 338.088 197.569 342.594 198.842L344.44 220.555H373.428L375.274 198.842C379.81 197.571 384.179 195.767 388.291 193.469L404.908 207.483L425.403 186.988L411.389 170.371C413.67 166.286 415.467 161.948 416.743 157.447L438.604 155.6ZM359.026 174.784C352.365 174.784 345.854 172.809 340.316 169.108C334.778 165.408 330.461 160.148 327.912 153.994C325.363 147.84 324.696 141.069 325.996 134.536C327.295 128.003 330.503 122.003 335.213 117.293C339.923 112.583 345.923 109.375 352.456 108.076C358.989 106.776 365.76 107.443 371.914 109.992C378.068 112.541 383.328 116.858 387.028 122.396C390.729 127.934 392.704 134.446 392.704 141.106C392.701 145.534 391.826 149.919 390.128 154.008C388.43 158.098 385.943 161.813 382.808 164.941C379.674 168.068 375.953 170.548 371.86 172.237C367.767 173.926 363.38 174.791 358.952 174.784H359.026Z" stroke="white" stroke-width="2" stroke-linecap="round" stroke-linejoin="round"/>
<path d="M750.065 438.923V425.039L739.652 424.134C739.039 421.962 738.178 419.868 737.085 417.893L743.806 409.899L734.02 400.076L726.044 406.797C724.073 405.697 721.978 404.835 719.804 404.23L718.899 393.817H704.996L704.109 404.23C701.934 404.832 699.838 405.694 697.869 406.797L689.874 400.076L680.052 409.899L686.772 417.893C685.666 419.864 684.799 421.959 684.187 424.134L673.774 425.039V438.923L684.187 439.828C684.799 442.003 685.666 444.098 686.772 446.069L679.996 453.99L689.819 463.812L697.813 457.091C699.783 458.195 701.878 459.056 704.054 459.658L704.94 470.071H718.843L719.748 459.658C721.923 459.053 724.018 458.191 725.989 457.091L733.965 463.812L743.806 453.99L737.085 445.995C738.178 444.02 739.039 441.926 739.652 439.754L750.065 438.923ZM711.901 448.155C708.705 448.159 705.58 447.214 702.921 445.441C700.261 443.668 698.188 441.146 696.962 438.195C695.737 435.243 695.414 431.994 696.035 428.859C696.657 425.724 698.194 422.844 700.452 420.582C702.711 418.321 705.59 416.781 708.724 416.156C711.858 415.531 715.108 415.85 718.061 417.072C721.014 418.294 723.538 420.365 725.314 423.022C727.09 425.679 728.038 428.803 728.038 431.999C728.036 434.121 727.616 436.221 726.801 438.181C725.987 440.14 724.795 441.919 723.293 443.418C721.791 444.916 720.009 446.104 718.048 446.914C716.087 447.724 713.986 448.139 711.864 448.137L711.901 448.155Z" stroke="white" stroke-width="2" stroke-linecap="round" stroke-linejoin="round"/>
<path d="M725 186.229C726.475 179.848 726.27 173.194 724.408 166.915C722.545 160.636 719.087 154.948 714.371 150.403C709.656 145.858 703.843 142.613 697.5 140.983C691.156 139.354 684.499 139.395 678.177 141.104C674.325 134.274 668.369 128.871 661.197 125.702C654.025 122.532 646.02 121.765 638.377 123.515C630.733 125.265 623.86 129.439 618.781 135.413C613.702 141.388 610.691 148.843 610.194 156.669C606.175 155.9 602.041 155.971 598.051 156.876C594.06 157.781 590.3 159.501 587.006 161.928C583.712 164.355 580.955 167.437 578.908 170.981C576.862 174.524 575.57 178.452 575.114 182.518C570.998 182.951 567.192 184.904 564.441 187.994C561.689 191.085 560.19 195.091 560.236 199.229C560.282 203.367 561.871 207.339 564.69 210.368C567.51 213.396 571.359 215.264 575.483 215.605H714.476C717.88 215.58 721.194 214.51 723.969 212.54C726.745 210.571 728.85 207.797 729.998 204.592C731.146 201.388 731.282 197.909 730.388 194.624C729.494 191.34 727.614 188.41 725 186.229Z" stroke="white" stroke-width="2" stroke-linecap="round" stroke-linejoin="round"/>
<path d="M648.617 202.902V241.213" stroke="white" stroke-linecap="round" stroke-linejoin="round"/>
<path d="M648.617 179.933V195.239" stroke="white" stroke-linecap="round" stroke-linejoin="round"/>
<path d="M648.617 165.605V173.803" stroke="white" stroke-linecap="round" stroke-linejoin="round"/>
<path d="M641.379 236.745L648.617 245.7L655.855 236.745" stroke="white" stroke-linecap="round" stroke-linejoin="round"/>
<path d="M316.08 635.209C317.55 628.827 317.342 622.173 315.476 615.895C313.611 609.617 310.151 603.929 305.435 599.385C300.718 594.841 294.905 591.596 288.561 589.966C282.218 588.337 275.561 588.377 269.238 590.084C265.39 583.249 259.434 577.842 252.261 574.67C245.087 571.498 237.079 570.731 229.434 572.484C221.788 574.237 214.915 578.416 209.84 584.396C204.764 590.377 201.76 597.839 201.274 605.668C199.448 605.318 197.594 605.139 195.735 605.132C188.431 605.127 181.38 607.812 175.931 612.676C170.481 617.539 167.015 624.24 166.193 631.498C162.078 631.929 158.271 633.88 155.518 636.969C152.765 640.058 151.263 644.063 151.307 648.201C151.351 652.339 152.937 656.311 155.755 659.341C158.573 662.371 162.42 664.241 166.544 664.585H305.667C309.065 664.548 312.371 663.471 315.139 661.497C317.906 659.523 320.001 656.749 321.143 653.547C322.284 650.345 322.415 646.87 321.52 643.591C320.625 640.312 318.745 637.387 316.135 635.209H316.08Z" stroke="white" stroke-width="2" stroke-linecap="round" stroke-linejoin="round"/>
<path d="M239.641 657.365V619.072" stroke="white" stroke-linecap="round" stroke-linejoin="round"/>
<path d="M239.641 680.352V665.027" stroke="white" stroke-linecap="round" stroke-linejoin="round"/>
<path d="M239.641 694.68V686.482" stroke="white" stroke-linecap="round" stroke-linejoin="round"/>
<path d="M246.879 623.54L239.641 614.585L232.403 623.54" stroke="white" stroke-linecap="round" stroke-linejoin="round"/>
<path d="M22.2146 149.156H486.48C488.556 149.156 490.548 149.981 492.016 151.449C493.484 152.918 494.309 154.909 494.309 156.985V178.883H14.3861V156.985C14.3861 154.909 15.2109 152.918 16.679 151.449C18.1472 149.981 20.1384 149.156 22.2146 149.156Z" fill="#93BFF3" stroke="#263238" stroke-linecap="round" stroke-linejoin="round"/>
<path d="M520.453 184.366H35.3975V525.702H520.453V184.366Z" fill="white" stroke="#263238" stroke-linecap="round" stroke-linejoin="round"/>
<path d="M527.875 164.001C527.875 165.462 527.442 166.89 526.631 168.104C525.819 169.319 524.666 170.265 523.316 170.824C521.967 171.383 520.482 171.53 519.049 171.245C517.617 170.96 516.301 170.256 515.268 169.223C514.235 168.191 513.531 166.875 513.247 165.442C512.962 164.009 513.108 162.524 513.667 161.175C514.226 159.825 515.172 158.672 516.387 157.86C517.601 157.049 519.029 156.616 520.49 156.616C522.449 156.616 524.327 157.394 525.712 158.779C527.097 160.164 527.875 162.042 527.875 164.001Z" fill="white" stroke="#263238" stroke-linecap="round" stroke-linejoin="round"/>
<path d="M501.731 164.001C501.731 165.462 501.298 166.89 500.486 168.104C499.675 169.319 498.521 170.265 497.172 170.824C495.822 171.383 494.337 171.53 492.905 171.245C491.472 170.96 490.156 170.256 489.123 169.223C488.09 168.191 487.387 166.875 487.102 165.442C486.817 164.009 486.963 162.524 487.522 161.175C488.081 159.825 489.028 158.672 490.242 157.86C491.457 157.049 492.885 156.616 494.345 156.616C496.304 156.616 498.183 157.394 499.568 158.779C500.953 160.164 501.731 162.042 501.731 164.001Z" fill="white" stroke="#263238" stroke-linecap="round" stroke-linejoin="round"/>
<path d="M475.531 164.001C475.531 165.462 475.098 166.89 474.286 168.104C473.475 169.319 472.321 170.265 470.972 170.824C469.622 171.383 468.137 171.53 466.705 171.245C465.272 170.96 463.956 170.256 462.923 169.223C461.89 168.191 461.187 166.875 460.902 165.442C460.617 164.009 460.763 162.524 461.322 161.175C461.881 159.825 462.828 158.672 464.042 157.86C465.257 157.049 466.685 156.616 468.146 156.616C470.104 156.616 471.983 157.394 473.368 158.779C474.753 160.164 475.531 162.042 475.531 164.001Z" fill="white" stroke="#263238" stroke-linecap="round" stroke-linejoin="round"/>
<path d="M505.756 199.008H486.554" stroke="#263238" stroke-width="2" stroke-linecap="round" stroke-linejoin="round"/>
<path d="M505.756 206.8H486.554" stroke="#263238" stroke-width="2" stroke-linecap="round" stroke-linejoin="round"/>
<path d="M505.756 214.591H486.554" stroke="#263238" stroke-width="2" stroke-linecap="round" stroke-linejoin="round"/>
<path d="M68.9828 400.408H214.346" stroke="#263238" stroke-width="2" stroke-linecap="round" stroke-linejoin="round"/>
<path d="M68.9828 411.874H214.346" stroke="#263238" stroke-width="2" stroke-linecap="round" stroke-linejoin="round"/>
<path d="M68.9828 423.543H183.604" stroke="#263238" stroke-width="2" stroke-linecap="round" stroke-linejoin="round"/>
<path d="M377.231 188.207V189.13" stroke="#263238" stroke-linecap="round" stroke-linejoin="round"/>
<path d="M377.231 194.669V516.359" stroke="#263238" stroke-linecap="round" stroke-linejoin="round" stroke-dasharray="1 3"/>
<path d="M377.231 519.129V520.052" stroke="#263238" stroke-linecap="round" stroke-linejoin="round"/>
<path d="M41.2319 449.152H42.1551" stroke="#263238" stroke-linecap="round" stroke-linejoin="round"/>
<path d="M47.6757 449.152H509.338" stroke="#263238" stroke-linecap="round" stroke-linejoin="round" stroke-dasharray="1 2.99"/>
<path d="M512.107 449.152H513.031" stroke="#263238" stroke-linecap="round" stroke-linejoin="round"/>
<path d="M380.426 445.958H374.056V452.328H380.426V445.958Z" fill="white" stroke="#263238" stroke-linecap="round" stroke-linejoin="round"/>
<path d="M351.807 387.964H266.764" stroke="#263238" stroke-linecap="round" stroke-linejoin="round"/>
<path d="M353.451 427.291C353.451 427.291 353.451 387.761 309.286 387.761C265.121 387.761 265.047 427.291 265.047 427.291" stroke="#263238" stroke-linecap="round" stroke-linejoin="round"/>
<path d="M353.451 431.021C355.51 431.021 357.18 429.351 357.18 427.291C357.18 425.231 355.51 423.562 353.451 423.562C351.391 423.562 349.721 425.231 349.721 427.291C349.721 429.351 351.391 431.021 353.451 431.021Z" fill="#93BFF3" stroke="#263238" stroke-linecap="round" stroke-linejoin="round"/>
<path d="M261.354 427.291C261.354 426.561 261.571 425.847 261.977 425.24C262.382 424.633 262.959 424.159 263.634 423.88C264.309 423.6 265.051 423.527 265.767 423.67C266.484 423.812 267.142 424.164 267.658 424.68C268.175 425.197 268.526 425.855 268.669 426.571C268.811 427.287 268.738 428.03 268.459 428.704C268.179 429.379 267.706 429.956 267.099 430.362C266.491 430.767 265.777 430.984 265.047 430.984C264.068 430.984 263.128 430.595 262.436 429.903C261.743 429.21 261.354 428.271 261.354 427.291Z" fill="#93BFF3" stroke="#263238" stroke-linecap="round" stroke-linejoin="round"/>
<path d="M350.182 391.029H356.719V384.493H350.182V391.029Z" fill="#93BFF3" stroke="#263238" stroke-linecap="round" stroke-linejoin="round"/>
<path d="M306.018 391.029H312.554V384.493H306.018V391.029Z" fill="#93BFF3" stroke="#263238" stroke-linecap="round" stroke-linejoin="round"/>
<path d="M261.853 391.029H268.389V384.493H261.853V391.029Z" fill="#93BFF3" stroke="#263238" stroke-linecap="round" stroke-linejoin="round"/>
<path d="M121.825 269.114V256.042L112.058 255.211C111.478 253.168 110.667 251.198 109.639 249.34L115.954 241.843L106.722 232.612L99.2076 238.926C97.3555 237.885 95.384 237.073 93.3362 236.507L92.4869 226.722H79.4516L78.6023 236.507C76.5595 237.071 74.5938 237.883 72.7493 238.926L65.2347 232.612L56.0029 241.843L62.3174 249.34C61.2824 251.194 60.4705 253.165 59.8987 255.211L50.113 256.042V269.114L59.8987 269.945C60.4737 271.989 61.2855 273.96 62.3174 275.816L56.0029 283.312L65.2347 292.544L72.7493 286.23C74.5822 287.27 76.5353 288.082 78.5653 288.648L79.4147 298.434H92.4684L93.3177 288.648C95.3591 288.081 97.3244 287.269 99.1707 286.23L106.685 292.544L115.917 283.312L109.603 275.816C110.627 273.956 111.438 271.987 112.021 269.945L121.825 269.114ZM85.9508 277.755C82.949 277.755 80.0147 276.865 77.5189 275.197C75.023 273.529 73.0777 271.159 71.929 268.386C70.7803 265.613 70.4797 262.561 71.0654 259.617C71.651 256.673 73.0964 253.969 75.219 251.846C77.3415 249.724 80.0458 248.278 82.9899 247.692C85.9339 247.107 88.9855 247.407 91.7588 248.556C94.532 249.705 96.9023 251.65 98.57 254.146C100.238 256.642 101.128 259.576 101.128 262.578C101.128 266.603 99.5288 270.463 96.6825 273.31C93.8363 276.156 89.976 277.755 85.9508 277.755Z" fill="#93BFF3" stroke="#263238" stroke-linecap="round" stroke-linejoin="round"/>
<path d="M166.212 298.397V289.461L159.509 288.87C159.124 287.474 158.572 286.128 157.866 284.863L162.187 279.731L155.854 273.416L150.721 277.736C149.453 277.032 148.108 276.475 146.714 276.075L146.142 269.354H137.205L136.615 276.056C135.22 276.456 133.876 277.014 132.608 277.718L127.475 273.398L121.142 279.712L125.481 284.845C124.761 286.106 124.203 287.452 123.819 288.851L117.117 289.442V298.379L123.819 298.951C124.2 300.352 124.758 301.699 125.481 302.958L121.142 308.127L127.475 314.442L132.608 310.121C133.876 310.826 135.22 311.383 136.615 311.783L137.205 318.467H146.142L146.714 311.783C148.108 311.383 149.453 310.826 150.721 310.121L155.854 314.442L162.187 308.127L157.958 302.976C158.668 301.713 159.22 300.367 159.602 298.969L166.212 298.397ZM141.674 304.305C139.616 304.309 137.604 303.702 135.891 302.561C134.179 301.42 132.844 299.797 132.055 297.897C131.266 295.997 131.058 293.905 131.459 291.887C131.859 289.869 132.85 288.015 134.305 286.56C135.76 285.105 137.614 284.115 139.632 283.714C141.65 283.314 143.741 283.521 145.642 284.31C147.542 285.099 149.165 286.435 150.306 288.147C151.447 289.859 152.054 291.871 152.05 293.929C152.045 296.679 150.95 299.316 149.005 301.261C147.061 303.206 144.424 304.301 141.674 304.305Z" fill="#93BFF3" stroke="#263238" stroke-linecap="round" stroke-linejoin="round"/>
<path d="M395.474 470.865H466.983" stroke="#263238" stroke-width="2" stroke-linecap="round" stroke-linejoin="round"/>
<path d="M395.474 482.331H466.983" stroke="#263238" stroke-width="2" stroke-linecap="round" stroke-linejoin="round"/>
<path d="M395.474 494H436.241" stroke="#263238" stroke-width="2" stroke-linecap="round" stroke-linejoin="round"/>
<path d="M301.254 498.763H263.607C261.159 498.763 258.81 497.791 257.079 496.059C255.348 494.328 254.375 491.98 254.375 489.532C254.375 487.083 255.348 484.735 257.079 483.004C258.81 481.272 261.159 480.3 263.607 480.3H301.254C303.703 480.3 306.051 481.272 307.782 483.004C309.513 484.735 310.486 487.083 310.486 489.532C310.486 491.98 309.513 494.328 307.782 496.059C306.051 497.791 303.703 498.763 301.254 498.763Z" fill="#93BFF3" stroke="#263238" stroke-linecap="round" stroke-linejoin="round"/>
<path d="M371.415 498.763H333.768C331.32 498.763 328.972 497.791 327.24 496.059C325.509 494.328 324.536 491.98 324.536 489.532C324.536 487.083 325.509 484.735 327.24 483.004C328.972 481.272 331.32 480.3 333.768 480.3H371.415C373.864 480.3 376.212 481.272 377.943 483.004C379.675 484.735 380.647 487.083 380.647 489.532C380.647 491.98 379.675 494.328 377.943 496.059C376.212 497.791 373.864 498.763 371.415 498.763Z" fill="#93BFF3" stroke="#263238" stroke-linecap="round" stroke-linejoin="round"/>
<path d="M480.535 300.687H400.698V380.523H480.535V300.687Z" fill="white" stroke="#263238" stroke-linecap="round" stroke-linejoin="round"/>
<path d="M400.698 300.687L480.535 380.523" stroke="#263238" stroke-linecap="round" stroke-linejoin="round"/>
<path d="M480.535 300.687L400.698 380.523" stroke="#263238" stroke-linecap="round" stroke-linejoin="round"/>
<path d="M432.013 210.049V228.679L423.796 236.895H405.167V210.049H432.013Z" fill="white" stroke="#263238" stroke-linecap="round" stroke-linejoin="round"/>
<path d="M432.013 228.679L423.797 236.895V228.679H432.013Z" fill="white" stroke="#263238" stroke-linecap="round" stroke-linejoin="round"/>
<path d="M146.511 354.12V372.75L138.295 380.985H119.665V354.12H146.511Z" fill="white" stroke="#263238" stroke-linecap="round" stroke-linejoin="round"/>
<path d="M146.511 372.75L138.295 380.985V372.75H146.511Z" fill="white" stroke="#263238" stroke-linecap="round" stroke-linejoin="round"/>
<path d="M45.0722 468.908V487.537L36.8559 495.754H18.2078V468.908H45.0722Z" fill="white" stroke="#263238" stroke-linecap="round" stroke-linejoin="round"/>
<path d="M45.0724 487.538L36.8561 495.754V487.538H45.0724Z" fill="white" stroke="#263238" stroke-linecap="round" stroke-linejoin="round"/>
<path d="M567.24 253.254H468.164V315.347H567.24V253.254Z" fill="#263238" stroke="#263238" stroke-linecap="round" stroke-linejoin="round"/>
<path d="M567.24 253.254H468.164V262.689H567.24V253.254Z" fill="#93BFF3" stroke="#263238" stroke-linecap="round" stroke-linejoin="round"/>
<path d="M478.264 270.646H503.596" stroke="white" stroke-linecap="round" stroke-linejoin="round"/>
<path d="M490.93 277.718H534.762" stroke="white" stroke-linecap="round" stroke-linejoin="round"/>
<path d="M485.335 284.31H498.241" stroke="white" stroke-linecap="round" stroke-linejoin="round"/>
<path d="M490.93 292.083H520.453" stroke="white" stroke-linecap="round" stroke-linejoin="round"/>
<path d="M478.264 299.136H503.596" stroke="white" stroke-linecap="round" stroke-linejoin="round"/>
<path d="M194.627 503.084H95.5516V565.177H194.627V503.084Z" fill="#263238" stroke="#263238" stroke-linecap="round" stroke-linejoin="round"/>
<path d="M194.627 503.084H95.5516V512.519H194.627V503.084Z" fill="#93BFF3" stroke="#263238" stroke-linecap="round" stroke-linejoin="round"/>
<path d="M105.67 520.495H130.983" stroke="white" stroke-linecap="round" stroke-linejoin="round"/>
<path d="M118.317 527.548H162.15" stroke="white" stroke-linecap="round" stroke-linejoin="round"/>
<path d="M112.723 534.14H125.629" stroke="white" stroke-linecap="round" stroke-linejoin="round"/>
<path d="M118.317 541.913H147.84" stroke="white" stroke-linecap="round" stroke-linejoin="round"/>
<path d="M105.67 548.984H130.983" stroke="white" stroke-linecap="round" stroke-linejoin="round"/>
<path d="M231.813 53.3308H140.788C139.721 53.3357 138.701 53.7613 137.947 54.5151C137.193 55.2689 136.767 56.2898 136.762 57.3559V99.822C136.767 100.886 137.194 101.905 137.948 102.656C138.702 103.407 139.723 103.829 140.788 103.829H181.592L186.245 120.446L190.916 103.829H231.813C232.877 103.829 233.898 103.407 234.652 102.656C235.407 101.905 235.833 100.886 235.838 99.822V57.3559C235.833 56.2898 235.407 55.2689 234.654 54.5151C233.9 53.7613 232.879 53.3357 231.813 53.3308Z" fill="white" stroke="#263238" stroke-linecap="round" stroke-linejoin="round"/>
<path d="M151.865 65.4797H220.642" stroke="#263238" stroke-width="2" stroke-linecap="round" stroke-linejoin="round"/>
<path d="M151.865 74.1946H220.642" stroke="#263238" stroke-width="2" stroke-linecap="round" stroke-linejoin="round"/>
<path d="M151.865 82.9094H220.642" stroke="#263238" stroke-width="2" stroke-linecap="round" stroke-linejoin="round"/>
<path d="M151.865 91.6243H203.693" stroke="#263238" stroke-width="2" stroke-linecap="round" stroke-linejoin="round"/>
<path d="M380.682 355.687C370.915 356.518 358.526 344.849 358.526 344.849C358.289 345.095 357.997 345.281 357.675 345.394C357.353 345.508 357.009 345.544 356.67 345.501C356.332 345.458 356.008 345.337 355.724 345.147C355.44 344.957 355.205 344.703 355.036 344.406C353.449 342.117 346.562 336.818 346.174 332.239C345.786 327.66 353.91 320.237 353.91 320.237C347.651 321.936 346.986 318.262 346.986 318.262C346.986 318.262 357.529 309.565 361.222 309.325C362.662 309.233 368.94 312.852 375.014 317.726C381.365 322.841 393.293 340.843 393.293 340.843C393.293 340.843 433.636 370.144 443.828 377.641C457.288 387.537 473.24 405.096 473.24 405.096C473.24 405.096 526.784 429.246 541.555 442.521L521.578 489.825C521.578 489.825 472.889 457.2 468.033 448.928C463.177 440.657 458.303 445.623 453.429 440.213C448.554 434.804 443.883 428.618 443.883 428.618C435.214 424.432 427.346 418.758 420.637 411.853C409.264 400.166 399.238 382.312 392.942 371.566C389.682 365.683 385.549 360.33 380.682 355.687Z" fill="#E58A7B" stroke="#263238" stroke-linecap="round" stroke-linejoin="round"/>
<path d="M384.1 348.452C384.1 348.452 369.569 344.925 368.314 335.343C367.759 332.913 366.695 330.629 365.193 328.64C365.193 328.64 351.641 327.976 352.49 322.455L370.585 320.849C377.171 323.379 382.717 328.047 386.334 334.105" fill="#E58A7B"/>
<path d="M384.1 348.452C384.1 348.452 369.569 344.925 368.314 335.343C367.759 332.913 366.695 330.629 365.193 328.64C365.193 328.64 351.641 327.976 352.49 322.455L370.585 320.849C377.171 323.379 382.717 328.047 386.334 334.105" stroke="#263238" stroke-linecap="round" stroke-linejoin="round"/>
<path d="M358.953 344.519C359.597 343.323 359.812 341.941 359.562 340.605C359.562 340.605 363.55 339.866 363.107 336.34C363.107 336.34 369.015 335.62 365.193 328.641" stroke="#263238" stroke-linecap="round" stroke-linejoin="round"/>
<path d="M363.107 336.34C363.107 336.34 355.149 330.45 354.263 327.754" stroke="#263238" stroke-linecap="round" stroke-linejoin="round"/>
<path d="M359.562 340.605C359.562 340.605 351.087 335.435 350.939 332.425" stroke="#263238" stroke-linecap="round" stroke-linejoin="round"/>
<path d="M361.501 314.054C361.501 314.054 358.805 318.892 354.337 319.907" stroke="#263238" stroke-linecap="round" stroke-linejoin="round"/>
<path d="M360.153 315.938C361.57 316.678 362.906 317.562 364.141 318.578" stroke="#263238" stroke-linecap="round" stroke-linejoin="round"/>
<path d="M669.62 479.469C648.728 470.627 627.177 463.429 605.164 457.94C572.742 450.352 520.232 443.576 520.232 443.576C520.232 443.576 534.67 590.915 530.867 599.777C527.063 608.64 504.242 638.403 504.242 638.403C504.242 638.403 627.745 686.556 649.274 690.655C670.802 694.754 659.576 620.032 659.576 620.032C659.576 620.032 682.323 525.055 669.62 479.469Z" fill="#263238"/>
<path d="M625.289 463.646C625.289 463.646 628.225 469.185 620.507 472.083C600.511 479.469 579.204 472.951 581.475 465.123C582.343 462.132 587.291 465.123 587.014 454.045C586.878 452.337 586.421 450.671 585.666 449.133C584.256 446.137 582.555 443.286 580.589 440.622C578.455 437.656 576.169 434.802 573.739 432.073C573.739 432.073 605.478 411.763 629.019 432.073C628.982 431.981 620.23 436.412 625.289 463.646Z" fill="#E58A7B" stroke="#263238" stroke-linecap="round" stroke-linejoin="round"/>
<path d="M664.616 726.068C652.117 746.378 588.694 755.998 554.075 755.093C519.456 754.188 419.845 707.088 413.088 697.044C406.828 687.812 391.448 657.218 415.155 638.736C417.167 637.183 419.304 635.799 421.544 634.6C437.773 625.811 545.711 653.525 545.711 653.525C545.711 653.525 552.395 649.297 554.851 649.611C562.384 650.571 567.775 656.664 582.989 661.003C593.643 664.049 622.723 652.343 641.297 662.406C643.358 663.508 645.259 664.887 646.947 666.505C664.302 683.085 677.098 705.703 664.616 726.068Z" fill="#93BFF3"/>
<mask id="mask0_51_12" style="mask-type:luminance" maskUnits="userSpaceOnUse" x="402" y="632" width="268" height="124">
<path d="M664.616 726.068C652.117 746.378 588.694 755.998 554.075 755.093C519.456 754.188 419.845 707.088 413.088 697.044C406.828 687.812 391.448 657.218 415.155 638.736C417.167 637.183 419.304 635.799 421.544 634.6C437.773 625.811 545.711 653.525 545.711 653.525C545.711 653.525 552.395 649.297 554.851 649.611C562.384 650.571 567.775 656.664 582.989 661.003C593.643 664.049 622.723 652.343 641.297 662.406C643.358 663.508 645.259 664.887 646.947 666.505C664.302 683.085 677.098 705.703 664.616 726.068Z" fill="white"/>
</mask>
<g mask="url(#mask0_51_12)">
<path opacity="0.3" d="M641.297 662.406C622.261 661.132 605.293 665.12 593.439 672.118C579.389 680.426 513.031 712.387 513.031 712.387C513.178 708.953 516.871 702.029 516.871 702.029C510.63 696.49 494.309 692.151 494.309 692.151C481.661 681.349 431.533 649.131 415.155 638.736C417.167 637.183 419.304 635.799 421.544 634.6C437.773 625.811 545.711 653.525 545.711 653.525C545.711 653.525 552.395 649.297 554.851 649.611C562.384 650.571 567.775 656.664 582.989 661.003C593.698 664.049 622.722 652.343 641.297 662.406Z" fill="black" fill-opacity="0.7"/>
</g>
<path d="M664.616 726.068C652.117 746.378 588.694 755.998 554.075 755.093C519.456 754.188 419.845 707.088 413.088 697.044C406.828 687.812 391.448 657.218 415.155 638.736C417.167 637.183 419.304 635.799 421.544 634.6C437.773 625.811 545.711 653.525 545.711 653.525C545.711 653.525 552.395 649.297 554.851 649.611C562.384 650.571 567.775 656.664 582.989 661.003C593.643 664.049 622.723 652.343 641.297 662.406C643.358 663.508 645.259 664.887 646.947 666.505C664.302 683.085 677.098 705.703 664.616 726.068Z" stroke="#263238" stroke-linecap="round" stroke-linejoin="round"/>
<path d="M645.156 744.458L646.744 751.419C646.744 751.419 642.498 763.457 623.831 765.433C605.164 767.408 594.105 771.526 585.058 772.061C580.328 772.434 575.574 772.36 570.859 771.839L569.013 769.107L645.156 744.458Z" fill="white" stroke="#263238" stroke-linecap="round" stroke-linejoin="round"/>
<path d="M536.757 743.719L569.105 769.107C584.696 767.774 600.187 765.455 615.485 762.164C630.81 758.619 644.196 753.542 644.916 746.562C646.042 735.964 634.706 733.066 621.246 733.472C618.735 733.472 616.15 733.73 613.546 733.989C591.999 736.297 564.6 724.406 564.6 724.406L536.757 743.719Z" fill="#263238"/>
<mask id="mask1_51_12" style="mask-type:luminance" maskUnits="userSpaceOnUse" x="536" y="724" width="109" height="46">
<path d="M536.757 743.719L569.105 769.107C584.696 767.774 600.187 765.455 615.485 762.164C630.81 758.619 644.196 753.542 644.916 746.562C646.042 735.964 634.706 733.066 621.246 733.472C618.735 733.472 616.15 733.73 613.547 733.989C592 736.297 564.6 724.406 564.6 724.406L536.757 743.719Z" fill="white"/>
</mask>
<g mask="url(#mask1_51_12)">
<path opacity="0.3" d="M644.935 746.304C638.655 748.64 632.63 751.61 626.951 755.166C626.951 755.166 596.911 770.62 550.734 754.705L536.757 743.719L564.6 724.388C564.6 724.388 591.981 736.297 613.547 733.97C616.15 733.693 618.735 733.509 621.246 733.453C634.614 733.047 645.858 735.89 644.935 746.304Z" fill="black" fill-opacity="0.7"/>
</g>
<path d="M536.757 743.719L569.105 769.107C584.696 767.774 600.187 765.455 615.485 762.164C630.81 758.619 644.196 753.542 644.916 746.562C646.042 735.964 634.706 733.066 621.246 733.472C618.735 733.472 616.15 733.73 613.546 733.989C591.999 736.297 564.6 724.406 564.6 724.406L536.757 743.719Z" stroke="#263238" stroke-linecap="round" stroke-linejoin="round"/>
<path d="M566.907 753.726C561.073 754.668 567.48 766.651 575.382 762.958C583.285 759.266 572.742 752.766 566.907 753.726Z" fill="white"/>
<mask id="mask2_51_12" style="mask-type:luminance" maskUnits="userSpaceOnUse" x="564" y="753" width="15" height="11">
<path d="M566.907 753.726C561.073 754.668 567.48 766.651 575.382 762.958C583.285 759.266 572.742 752.766 566.907 753.726Z" fill="white"/>
</mask>
<g mask="url(#mask2_51_12)">
<path opacity="0.2" d="M577.857 761.057C573.63 760.541 569.433 759.808 565.283 758.859C564.175 756.515 564.434 754.114 566.908 753.727C571.801 752.914 580.035 757.438 577.857 761.057Z" fill="black" fill-opacity="0.7"/>
</g>
<path d="M566.907 753.726C561.073 754.668 567.48 766.651 575.382 762.958C583.285 759.266 572.742 752.766 566.907 753.726Z" stroke="#263238" stroke-linecap="round" stroke-linejoin="round"/>
<path d="M615.485 762.146C630.81 758.601 644.196 753.523 644.916 746.544C646.042 735.946 634.706 733.047 621.246 733.453C620.655 734.026 607.601 746.636 615.485 762.146Z" fill="white"/>
<mask id="mask3_51_12" style="mask-type:luminance" maskUnits="userSpaceOnUse" x="612" y="733" width="33" height="30">
<path d="M615.485 762.146C630.81 758.601 644.196 753.523 644.916 746.544C646.042 735.946 634.706 733.047 621.246 733.453C620.655 734.026 607.601 746.636 615.485 762.146Z" fill="white"/>
</mask>
<g mask="url(#mask3_51_12)">
<path opacity="0.3" d="M644.935 746.304C638.655 748.64 632.629 751.61 626.951 755.167C622.904 757.038 618.663 758.456 614.304 759.395C609.134 745.178 620.692 733.989 621.246 733.454C634.614 733.047 645.858 735.891 644.935 746.304Z" fill="black" fill-opacity="0.7"/>
</g>
<path d="M615.485 762.146C630.81 758.601 644.196 753.523 644.916 746.544C646.042 735.946 634.706 733.047 621.246 733.453C620.655 734.026 607.601 746.636 615.485 762.146Z" stroke="#263238" stroke-linecap="round" stroke-linejoin="round"/>
<path d="M604.555 748.981H604.647C604.857 748.991 605.067 748.959 605.265 748.887C605.462 748.816 605.644 748.705 605.798 748.563C605.953 748.42 606.077 748.248 606.165 748.057C606.253 747.866 606.301 747.659 606.309 747.449C606.832 742.912 608.77 738.655 611.848 735.281C611.996 735.134 612.114 734.958 612.194 734.765C612.275 734.572 612.316 734.364 612.316 734.155C612.316 733.946 612.275 733.739 612.194 733.545C612.114 733.352 611.996 733.176 611.848 733.029C611.547 732.733 611.143 732.568 610.721 732.568C610.3 732.568 609.896 732.733 609.595 733.029C605.975 736.955 603.727 741.951 603.188 747.264C603.151 747.671 603.273 748.077 603.527 748.397C603.782 748.717 604.15 748.926 604.555 748.981Z" fill="white" stroke="#263238" stroke-linecap="round" stroke-linejoin="round"/>
<path d="M598.148 749.406H598.277C598.487 749.411 598.696 749.374 598.892 749.297C599.088 749.221 599.266 749.107 599.417 748.961C599.568 748.815 599.689 748.64 599.772 748.447C599.856 748.254 599.9 748.047 599.902 747.836C600.268 743.226 601.976 738.823 604.813 735.171C604.969 735.011 605.089 734.821 605.167 734.613C605.245 734.405 605.279 734.182 605.267 733.96C605.255 733.738 605.196 733.521 605.096 733.323C604.995 733.124 604.854 732.949 604.682 732.808C604.51 732.666 604.311 732.563 604.097 732.502C603.882 732.442 603.658 732.428 603.438 732.459C603.217 732.49 603.006 732.567 602.817 732.684C602.628 732.801 602.465 732.956 602.339 733.14C599.044 737.342 597.082 742.435 596.708 747.763C596.692 748.169 596.832 748.566 597.1 748.871C597.368 749.177 597.743 749.368 598.148 749.406Z" fill="white" stroke="#263238" stroke-linecap="round" stroke-linejoin="round"/>
<path d="M590.486 748.557C590.694 748.577 590.905 748.556 591.105 748.494C591.306 748.433 591.492 748.332 591.653 748.198C591.815 748.064 591.948 747.9 592.045 747.714C592.143 747.528 592.203 747.325 592.221 747.117C592.72 741.577 597.483 734.321 597.539 734.192C597.772 733.836 597.857 733.402 597.774 732.984C597.691 732.566 597.447 732.198 597.095 731.958C596.742 731.725 596.311 731.641 595.897 731.724C595.482 731.807 595.116 732.05 594.88 732.401C594.658 732.715 589.599 740.322 589.027 746.747C588.999 746.963 589.014 747.182 589.073 747.391C589.132 747.6 589.233 747.795 589.369 747.964C589.505 748.133 589.675 748.273 589.867 748.375C590.058 748.477 590.269 748.539 590.486 748.557Z" fill="white" stroke="#263238" stroke-linecap="round" stroke-linejoin="round"/>
<path d="M583.248 747.8C583.389 747.818 583.532 747.818 583.673 747.8C583.881 747.766 584.08 747.691 584.259 747.58C584.438 747.469 584.593 747.323 584.715 747.151C584.837 746.979 584.924 746.785 584.97 746.579C585.016 746.373 585.021 746.161 584.984 745.953C583.857 739.159 590.172 733.343 590.227 733.287C590.436 732.992 590.539 732.635 590.52 732.274C590.501 731.912 590.36 731.568 590.121 731.297C589.881 731.025 589.558 730.843 589.202 730.779C588.846 730.714 588.478 730.772 588.159 730.942C587.845 731.219 580.478 737.977 581.9 746.526C581.968 746.85 582.133 747.146 582.374 747.374C582.615 747.601 582.92 747.75 583.248 747.8Z" fill="white" stroke="#263238" stroke-linecap="round" stroke-linejoin="round"/>
<path d="M575.382 745.898C575.553 745.925 575.728 745.925 575.899 745.898C576.297 745.801 576.642 745.556 576.866 745.213C577.089 744.87 577.172 744.454 577.099 744.052C575.715 737.995 581.678 731.127 581.752 731.127C582.029 730.808 582.168 730.392 582.141 729.97C582.113 729.549 581.92 729.155 581.605 728.874C581.449 728.734 581.266 728.626 581.068 728.557C580.871 728.487 580.661 728.457 580.451 728.469C580.242 728.481 580.037 728.535 579.848 728.627C579.659 728.718 579.491 728.846 579.352 729.004C579.057 729.336 572.225 737.146 573.979 744.827C574.081 745.124 574.268 745.385 574.518 745.575C574.768 745.766 575.069 745.878 575.382 745.898Z" fill="white" stroke="#263238" stroke-linecap="round" stroke-linejoin="round"/>
<path d="M409.063 734.044L406.755 740.802C406.755 740.802 409.709 753.228 428.062 757.142C446.415 761.056 456.976 766.374 465.838 767.814C470.503 768.672 475.238 769.093 479.981 769.069L482.105 766.54L409.063 734.044Z" fill="white" stroke="#263238" stroke-linecap="round" stroke-linejoin="round"/>
<path d="M516.871 744.697L482.049 766.54C466.683 763.58 451.518 759.651 436.647 754.778C421.784 749.646 408.952 743.183 408.952 736.167C408.952 725.495 420.529 723.815 433.878 725.625C436.37 725.957 438.918 726.418 441.485 726.954C462.662 731.514 491.152 722.56 491.152 722.56L516.871 744.697Z" fill="#263238"/>
<mask id="mask4_51_12" style="mask-type:luminance" maskUnits="userSpaceOnUse" x="408" y="722" width="109" height="45">
<path d="M516.871 744.697L482.049 766.54C466.682 763.58 451.518 759.651 436.647 754.778C421.784 749.646 408.952 743.183 408.952 736.167C408.952 725.495 420.528 723.815 433.877 725.625C436.37 725.957 438.918 726.418 441.484 726.954C462.662 731.514 491.151 722.56 491.151 722.56L516.871 744.697Z" fill="white"/>
</mask>
<g mask="url(#mask4_51_12)">
<path opacity="0.3" d="M516.871 744.697L496.395 757.622C479.791 752.464 465.231 742.213 454.778 728.32C467.121 728.049 479.372 726.13 491.207 722.615L516.871 744.697Z" fill="black" fill-opacity="0.7"/>
</g>
<path d="M516.871 744.697L482.049 766.54C466.683 763.58 451.518 759.651 436.647 754.778C421.784 749.646 408.952 743.183 408.952 736.167C408.952 725.495 420.529 723.815 433.878 725.625C436.37 725.957 438.918 726.418 441.485 726.954C462.662 731.514 491.152 722.56 491.152 722.56L516.871 744.697Z" stroke="#263238" stroke-linecap="round" stroke-linejoin="round"/>
<path d="M436.647 754.76C421.784 749.628 408.952 743.165 408.952 736.149C408.952 725.477 420.529 723.797 433.878 725.606C434.469 726.234 446.119 740.174 436.647 754.76Z" fill="white" stroke="#263238" stroke-linecap="round" stroke-linejoin="round"/>
<path d="M448.907 742.814H448.815C448.39 742.786 447.994 742.592 447.711 742.274C447.428 741.957 447.28 741.541 447.301 741.116C447.271 736.558 445.805 732.126 443.11 728.45C442.953 728.288 442.831 728.096 442.754 727.884C442.676 727.673 442.644 727.448 442.658 727.223C442.673 726.999 442.735 726.78 442.84 726.581C442.945 726.382 443.091 726.207 443.268 726.068C443.445 725.928 443.649 725.828 443.867 725.773C444.086 725.717 444.313 725.709 444.535 725.747C444.757 725.785 444.968 725.87 445.155 725.995C445.342 726.12 445.501 726.284 445.621 726.474C448.807 730.738 450.518 735.923 450.495 741.245C450.49 741.663 450.321 742.062 450.023 742.356C449.726 742.65 449.325 742.814 448.907 742.814Z" fill="white" stroke="#263238" stroke-linecap="round" stroke-linejoin="round"/>
<path d="M455.222 743.867H455.074C454.651 743.829 454.26 743.626 453.986 743.3C453.713 742.975 453.58 742.555 453.615 742.131C453.747 737.517 452.521 732.965 450.089 729.041C449.968 728.866 449.882 728.669 449.837 728.462C449.792 728.254 449.788 728.039 449.825 727.83C449.863 727.621 449.942 727.421 450.057 727.243C450.172 727.064 450.321 726.909 450.495 726.788C450.67 726.667 450.866 726.581 451.074 726.536C451.282 726.491 451.496 726.487 451.705 726.525C451.915 726.562 452.114 726.641 452.293 726.756C452.472 726.871 452.626 727.02 452.748 727.194C455.6 731.715 457.016 736.993 456.81 742.334C456.791 742.744 456.616 743.132 456.321 743.416C456.025 743.701 455.632 743.863 455.222 743.867Z" fill="white" stroke="#263238" stroke-linecap="round" stroke-linejoin="round"/>
<path d="M462.939 743.867C462.515 743.857 462.111 743.682 461.814 743.378C461.518 743.074 461.351 742.667 461.352 742.242C461.462 736.611 457.474 728.985 457.419 728.911C457.223 728.531 457.185 728.09 457.313 727.682C457.441 727.274 457.724 726.933 458.102 726.733C458.479 726.538 458.918 726.5 459.323 726.628C459.728 726.756 460.066 727.04 460.262 727.416C460.447 727.748 464.675 735.835 464.564 742.297C464.555 742.72 464.378 743.122 464.074 743.416C463.77 743.71 463.362 743.872 462.939 743.867Z" fill="white" stroke="#263238" stroke-linecap="round" stroke-linejoin="round"/>
<path d="M470.214 743.867H469.789C469.381 743.751 469.035 743.478 468.828 743.107C468.62 742.737 468.567 742.3 468.681 741.891C470.528 735.263 464.859 728.801 464.804 728.745C464.644 728.592 464.517 728.408 464.431 728.204C464.345 728 464.303 727.78 464.306 727.559C464.309 727.338 464.358 727.119 464.45 726.918C464.541 726.716 464.673 726.536 464.838 726.388C465.003 726.24 465.196 726.128 465.406 726.058C465.616 725.988 465.838 725.963 466.059 725.983C466.279 726.003 466.493 726.069 466.687 726.175C466.881 726.282 467.051 726.428 467.186 726.603C467.463 726.917 474.091 734.413 471.765 742.759C471.656 743.083 471.447 743.365 471.169 743.564C470.89 743.763 470.556 743.869 470.214 743.867Z" fill="white" stroke="#263238" stroke-linecap="round" stroke-linejoin="round"/>
<path d="M478.246 742.815C478.069 742.822 477.892 742.79 477.729 742.722C477.527 742.658 477.341 742.554 477.181 742.416C477.021 742.277 476.891 742.109 476.798 741.919C476.705 741.729 476.651 741.523 476.639 741.312C476.628 741.101 476.659 740.89 476.732 740.691C478.744 734.82 473.519 727.379 473.482 727.305C473.331 727.137 473.217 726.938 473.148 726.722C473.079 726.507 473.056 726.279 473.081 726.054C473.106 725.829 473.179 725.612 473.294 725.417C473.409 725.222 473.564 725.053 473.748 724.922C473.933 724.791 474.143 724.701 474.365 724.657C474.587 724.613 474.816 724.616 475.037 724.667C475.258 724.717 475.465 724.814 475.646 724.951C475.827 725.087 475.976 725.26 476.085 725.459C476.344 725.81 482.308 734.303 479.778 741.762C479.661 742.073 479.451 742.341 479.177 742.529C478.903 742.717 478.578 742.817 478.246 742.815Z" fill="white" stroke="#263238" stroke-linecap="round" stroke-linejoin="round"/>
<path d="M485.834 751.474C491.539 753.043 483.988 764.214 476.436 759.782C468.885 755.351 480.147 749.923 485.834 751.474Z" fill="white" stroke="#263238" stroke-linecap="round" stroke-linejoin="round"/>
<path d="M419.993 692.169C428.542 704.152 453.892 717.39 479.076 728.302C483.581 735.762 488.893 742.704 494.918 749C510.464 764.989 516.797 756.034 516.797 756.034C516.797 756.034 526.62 754.927 541.114 752.951C541.717 754.357 542.769 755.523 544.105 756.268C545.441 757.013 546.986 757.294 548.499 757.068C550.346 756.773 554.038 754.077 558.119 750.514C594.732 744.975 644.417 735.743 657.822 724.997" fill="#93BFF3"/>
<path d="M419.993 692.169C428.542 704.152 453.892 717.39 479.076 728.302C483.581 735.762 488.893 742.704 494.918 749C510.464 764.989 516.797 756.034 516.797 756.034C516.797 756.034 526.62 754.927 541.114 752.951C541.717 754.357 542.769 755.523 544.105 756.268C545.441 757.013 546.986 757.294 548.499 757.068C550.346 756.773 554.038 754.077 558.119 750.514C594.732 744.975 644.417 735.743 657.822 724.997" stroke="#263238" stroke-linecap="round" stroke-linejoin="round"/>
<path d="M643.55 669.348C637.217 662.387 630.884 662.074 617.59 663.015C617.59 663.015 582.897 674.093 558.691 688.661C534.486 703.229 499.183 718.683 499.183 718.683C499.183 718.683 488.419 715.562 480.923 718.683C480.923 718.683 475.661 719.089 479.187 728.284" stroke="#263238" stroke-linecap="round" stroke-linejoin="round"/>
<path d="M659.65 710.946C659.65 710.946 659.834 721.674 644.62 729.096" stroke="#263238" stroke-linecap="round" stroke-linejoin="round"/>
<path d="M491.853 666.191C491.853 666.191 515.856 683.547 520.675 694.994C525.392 696.982 529.948 699.334 534.301 702.029" stroke="#263238" stroke-linecap="round" stroke-linejoin="round"/>
<path d="M522.41 680.611C524.171 685.599 524.465 690.988 523.26 696.139" stroke="#263238" stroke-linecap="round" stroke-linejoin="round"/>
<path d="M516.872 669.348C518.179 671.251 519.328 673.258 520.306 675.349" stroke="#263238" stroke-linecap="round" stroke-linejoin="round"/>
<path d="M551.066 667.76C551.066 667.76 559.097 678.506 561.091 687.221" stroke="#263238" stroke-linecap="round" stroke-linejoin="round"/>
<path d="M595.803 732.678C598.79 732.502 601.763 732.132 604.702 731.57" stroke="#263238" stroke-linecap="round" stroke-linejoin="round"/>
<path d="M520.453 724.979C543.212 729.487 566.3 732.136 589.488 732.899" stroke="#263238" stroke-linecap="round" stroke-linejoin="round"/>
<path d="M682.469 562.497C682.469 562.497 678.13 638.198 673.016 642.537C667.901 646.876 659.833 648.223 644.563 649.497C629.294 650.771 561.754 654.907 561.754 654.907L554.48 633.213C554.48 633.213 590.391 629.52 606.325 623.704C618.339 619.597 630.63 616.352 643.105 613.992C643.105 613.992 640.077 594.956 640.077 586.758V548.207" fill="#E58A7B"/>
<path d="M682.469 562.497C682.469 562.497 678.13 638.198 673.016 642.537C667.901 646.876 659.833 648.223 644.563 649.497C629.294 650.771 561.754 654.907 561.754 654.907L554.48 633.213C554.48 633.213 590.391 629.52 606.325 623.704C618.339 619.597 630.63 616.352 643.105 613.992C643.105 613.992 640.077 594.956 640.077 586.758V548.207" stroke="#263238" stroke-linecap="round" stroke-linejoin="round"/>
<path d="M669.62 479.469C686.071 489.605 690.927 513.035 685.24 563.053C685.24 563.053 690.096 568.962 682.914 571.916C682.914 571.916 656.012 561.853 643.513 568.795C631.013 575.738 634.281 559.213 634.281 559.213C634.281 559.213 629.13 513.202 640.522 504.875" fill="#263238"/>
<path d="M639.008 497.84C639.008 497.84 623.184 514.291 637.161 555.871C636.28 559.265 635.662 562.722 635.315 566.211C635.315 568.999 639.137 570.439 639.137 570.439" stroke="white" stroke-linecap="round" stroke-linejoin="round"/>
<path d="M620.507 525.702C620.507 525.702 621.652 546.012 634.244 554.819" stroke="white" stroke-linecap="round" stroke-linejoin="round"/>
<path d="M624.569 478.546C624.569 478.546 600.031 487.944 580.515 477.53C568.939 471.364 573.702 461.449 573.702 461.449" stroke="white" stroke-linecap="round" stroke-linejoin="round"/>
<path d="M448.113 669.385H581.678C584.695 669.386 587.699 668.995 590.615 668.222L616.962 661.316C617.326 661.222 617.649 661.01 617.88 660.713C618.11 660.415 618.236 660.049 618.236 659.673C618.236 659.218 618.055 658.781 617.733 658.459C617.411 658.137 616.974 657.956 616.519 657.956H442.592C442.14 657.961 441.708 658.144 441.39 658.465C441.072 658.787 440.894 659.221 440.894 659.673V662.166C440.894 664.08 441.654 665.917 443.008 667.271C444.362 668.624 446.198 669.385 448.113 669.385Z" fill="#757575" stroke="#263238" stroke-linecap="round" stroke-linejoin="round"/>
<path d="M434.912 662.738H568.846C569.371 662.762 569.893 662.656 570.367 662.428C570.84 662.201 571.249 661.86 571.559 661.435C571.868 661.011 572.067 660.517 572.138 659.996C572.209 659.476 572.15 658.946 571.967 658.454L547.133 561.835C546.8 560.649 546.105 559.597 545.145 558.826C544.185 558.054 543.008 557.602 541.779 557.533H407.807C407.282 557.512 406.76 557.621 406.287 557.851C405.814 558.081 405.405 558.423 405.096 558.849C404.788 559.275 404.589 559.77 404.518 560.291C404.446 560.811 404.504 561.342 404.687 561.835L429.539 658.454C429.871 659.642 430.569 660.695 431.533 661.464C432.498 662.233 433.68 662.679 434.912 662.738Z" fill="#999999" stroke="#263238" stroke-linecap="round" stroke-linejoin="round"/>
<path d="M412.534 560.967H410.004" stroke="#263238" stroke-linecap="round" stroke-linejoin="round"/>
<path d="M432.161 560.967H419.088" stroke="#263238" stroke-linecap="round" stroke-linejoin="round"/>
<path d="M565.597 650.534L543.662 565.269C543.333 564.085 542.641 563.034 541.684 562.262C540.727 561.491 539.553 561.038 538.326 560.967H435.115" stroke="#263238" stroke-linecap="round" stroke-linejoin="round"/>
<path d="M567.498 657.956L566.944 655.833" stroke="#263238" stroke-linecap="round" stroke-linejoin="round"/>
<path d="M475.181 612.572C475.272 613.355 475.432 614.127 475.661 614.88C477.36 620.696 482.806 624.241 487.81 622.764C492.814 621.287 495.491 615.379 493.792 609.563C492.094 603.747 486.61 600.202 481.606 601.679C481.022 601.858 480.459 602.099 479.926 602.399C480.201 604.372 479.9 606.382 479.058 608.187C478.216 609.992 476.869 611.515 475.181 612.572Z" fill="white" stroke="#263238" stroke-linecap="round" stroke-linejoin="round"/>
<path d="M534.301 431.501C522.706 430.245 516.391 419.223 509.412 417.505C505.518 416.573 501.703 415.339 498.002 413.813C498.002 413.813 495.601 405.43 492.001 408.274C488.401 411.117 483.674 473.819 488.308 471.844C492.943 469.868 492.961 477.272 492.961 477.272L536 515.196L572.077 451.312C572.077 451.312 545.896 432.775 534.301 431.501Z" fill="#263238"/>
<path d="M183.586 208.221V207.298H184.509" stroke="#263238" stroke-linecap="round" stroke-linejoin="round"/>
<path d="M189.938 207.298H346.139" stroke="#263238" stroke-linecap="round" stroke-linejoin="round" stroke-dasharray="0.98 2.93"/>
<path d="M348.835 207.298H349.758V208.221" stroke="#263238" stroke-linecap="round" stroke-linejoin="round"/>
<path d="M349.776 213.76V314.387" stroke="#263238" stroke-linecap="round" stroke-linejoin="round" stroke-dasharray="1 3"/>
<path d="M349.758 317.156V318.079H348.835" stroke="#263238" stroke-linecap="round" stroke-linejoin="round"/>
<path d="M343.425 318.079H187.223" stroke="#263238" stroke-linecap="round" stroke-linejoin="round" stroke-dasharray="0.98 2.93"/>
<path d="M184.509 318.079H183.586V317.156" stroke="#263238" stroke-linecap="round" stroke-linejoin="round"/>
<path d="M183.605 311.617V210.991" stroke="#263238" stroke-linecap="round" stroke-linejoin="round" stroke-dasharray="1 3"/>
<path d="M266.69 210.031C268.2 210.031 269.423 208.807 269.423 207.298C269.423 205.789 268.2 204.565 266.69 204.565C265.181 204.565 263.958 205.789 263.958 207.298C263.958 208.807 265.181 210.031 266.69 210.031Z" fill="#93BFF3" stroke="#263238" stroke-linecap="round" stroke-linejoin="round"/>
<path d="M183.605 265.421C185.114 265.421 186.337 264.198 186.337 262.689C186.337 261.179 185.114 259.956 183.605 259.956C182.095 259.956 180.872 261.179 180.872 262.689C180.872 264.198 182.095 265.421 183.605 265.421Z" fill="#93BFF3" stroke="#263238" stroke-linecap="round" stroke-linejoin="round"/>
<path d="M266.69 320.812C268.2 320.812 269.423 319.588 269.423 318.079C269.423 316.57 268.2 315.347 266.69 315.347C265.181 315.347 263.958 316.57 263.958 318.079C263.958 319.588 265.181 320.812 266.69 320.812Z" fill="#93BFF3" stroke="#263238" stroke-linecap="round" stroke-linejoin="round"/>
<path d="M349.777 265.421C351.286 265.421 352.509 264.198 352.509 262.689C352.509 261.179 351.286 259.956 349.777 259.956C348.267 259.956 347.044 261.179 347.044 262.689C347.044 264.198 348.267 265.421 349.777 265.421Z" fill="#93BFF3" stroke="#263238" stroke-linecap="round" stroke-linejoin="round"/>
<path d="M352.952 314.903H346.582V321.273H352.952V314.903Z" fill="#93BFF3" stroke="#263238" stroke-linecap="round" stroke-linejoin="round"/>
<path d="M352.952 204.122H346.582V210.492H352.952V204.122Z" fill="#93BFF3" stroke="#263238" stroke-linecap="round" stroke-linejoin="round"/>
<path d="M186.78 314.903H180.41V321.273H186.78V314.903Z" fill="#93BFF3" stroke="#263238" stroke-linecap="round" stroke-linejoin="round"/>
<path d="M186.78 204.122H180.41V210.492H186.78V204.122Z" fill="#93BFF3" stroke="#263238" stroke-linecap="round" stroke-linejoin="round"/>
<path d="M339.252 217.102H194.627V308.995H339.252V217.102Z" fill="white" stroke="#263238" stroke-linecap="round" stroke-linejoin="round"/>
<path d="M339.252 281.854L323.17 297.936L279.67 254.436L261.373 272.733L232.201 243.561L194.627 281.115V308.995H339.252V281.854Z" fill="#93BFF3" stroke="#263238" stroke-linecap="round" stroke-linejoin="round"/>
<path d="M309.286 253.402C314.925 253.402 319.496 248.83 319.496 243.191C319.496 237.552 314.925 232.981 309.286 232.981C303.647 232.981 299.076 237.552 299.076 243.191C299.076 248.83 303.647 253.402 309.286 253.402Z" fill="#93BFF3" stroke="#263238" stroke-linecap="round" stroke-linejoin="round"/>
<path d="M542 448.45C542 448.45 530.922 469.074 529.611 500.628" stroke="white" stroke-linecap="round" stroke-linejoin="round"/>
<path d="M509.43 462.723C509.43 462.723 512.735 480.263 522.355 492.966" stroke="white" stroke-linecap="round" stroke-linejoin="round"/>
<path d="M554.925 535.1C554.925 535.1 571.542 589.678 607.638 605.741" stroke="white" stroke-linecap="round" stroke-linejoin="round"/>
<path d="M598.646 436.301C598.646 436.301 597.077 448.21 585.63 449.041C584.219 446.045 582.519 443.194 580.552 440.529C586.497 438.77 592.538 437.359 598.646 436.301Z" fill="#263238"/>
<path d="M623.037 437.132C623.037 437.132 642.183 439.477 650.197 413.776C658.21 388.075 651.914 368.706 620.23 359.382C602.653 354.213 585.15 358.367 578.743 371.679C573.314 383.071 575.881 392.543 574.644 396.365C573.241 400.648 560.279 404.286 560.279 407.221C560.279 409.64 567.462 413.776 567.462 413.776L565.357 420.164L567.332 421.217C567.332 421.217 563.64 435.6 565.357 440.677C566.575 444.37 599.016 445.921 601.545 436.726" fill="#E58A7B"/>
<path d="M623.037 437.132C623.037 437.132 642.183 439.477 650.197 413.776C658.21 388.075 651.914 368.706 620.23 359.382C602.653 354.213 585.15 358.367 578.743 371.679C573.314 383.071 575.881 392.543 574.644 396.365C573.241 400.648 560.279 404.286 560.279 407.221C560.279 409.64 567.462 413.776 567.462 413.776L565.357 420.164L567.332 421.217C567.332 421.217 563.64 435.6 565.357 440.677C566.575 444.37 599.016 445.921 601.545 436.726" stroke="#263238" stroke-linecap="round" stroke-linejoin="round"/>
<path d="M578.927 381.003C578.927 381.003 585.26 382.591 586.996 385.914" stroke="#263238" stroke-linecap="round" stroke-linejoin="round"/>
<path d="M580.035 395.608C579.758 397.454 580.183 399.06 580.995 399.171C581.808 399.282 582.657 397.879 582.934 396.014C583.211 394.149 582.768 392.561 581.974 392.45C581.18 392.34 580.312 393.743 580.035 395.608Z" fill="#263238"/>
<path d="M567.332 421.217C567.332 421.217 577.635 425.168 581.475 422.786" stroke="#263238" stroke-linecap="round" stroke-linejoin="round"/>
<path d="M570.951 394.131C570.194 398.267 571.117 401.886 573.019 402.236C574.921 402.587 577.099 399.541 577.856 395.423C578.613 391.306 577.709 387.65 575.788 387.299C573.868 386.949 571.726 390.013 570.951 394.131Z" stroke="#263238" stroke-linecap="round" stroke-linejoin="round"/>
<path d="M651.046 373.1C649.504 365.619 645.207 358.989 639.008 354.526C632.097 349.673 624.185 346.436 615.854 345.054C615.854 345.054 621.966 347.732 624.292 351.258C624.292 351.258 608.469 339.368 589.673 347.178C570.877 354.988 573.222 375.279 573.222 375.279L575.955 369.962C575.955 369.962 575.641 376.295 578.964 378.621C579.96 375.519 581.317 372.544 583.008 369.759C583.008 369.759 587.993 384.732 601.711 389.81C600.779 387.449 600.701 384.837 601.49 382.425C601.49 382.425 609.097 398.876 606.881 406.907L609.3 411.117C609.3 411.117 618.033 402.273 625.142 409.64C629.222 413.886 617.332 429.95 615.633 429.95L622.815 440.492C622.815 440.492 640.762 443.059 651.101 423.617C661.441 404.175 658.911 395.921 658.911 395.921C658.911 395.921 662.29 400.648 662.604 403.307C662.641 403.27 665.706 382.388 651.046 373.1Z" fill="#263238"/>
<path d="M608.82 412.982C608.82 412.982 614.359 394.37 626.139 400.925C637.918 407.48 629.517 417.413 625.289 421.235C621.061 425.057 617.904 431.999 615.153 431.999C612.402 431.999 611.792 428.62 611.792 428.62" fill="#E58A7B"/>
<path d="M608.82 412.982C608.82 412.982 614.359 394.37 626.139 400.925C637.918 407.48 629.517 417.413 625.289 421.235C621.061 425.057 617.904 431.999 615.153 431.999C612.402 431.999 611.792 428.62 611.792 428.62" stroke="#263238" stroke-linecap="round" stroke-linejoin="round"/>
<path d="M577.856 395.423L610.721 402.236" stroke="#263238" stroke-linecap="round" stroke-linejoin="round"/>
</svg>
